<svg xmlns="http://www.w3.org/2000/svg" xmlns:xlink="http://www.w3.org/1999/xlink" xmlns:lucid="lucid" width="1830" height="926"><g transform="translate(-20 -40)" lucid:page-tab-id="0_0"><path d="M0 0h1870.4v1323.2H0z" fill="#fff"/><path d="M886.3 182.18c-.8.08-1.42.24-2.04.56l-27.3 13.45c-1.5.7-2.53 1.96-2.85 3.6l-6.75 30.3c-.32 1.43-.08 2.84.7 4.1.08.16.16.24.32.4l18.9 24.23c1 1.34 2.43 2.05 4.08 2.05h30.38c1.65 0 3.07-.7 4.1-2.05l18.88-24.23c1.03-1.34 1.42-2.92 1.03-4.57l-6.77-30.22c-.3-1.64-1.34-2.9-2.83-3.6l-27.3-13.46c-.88-.4-1.66-.63-2.53-.56z" stroke="#000" stroke-opacity="0" stroke-width="3.83" fill="#326ce5"/><path d="M886.3 180c-.84.08-1.5.25-2.17.58l-28.83 14.2c-1.58.76-2.66 2.08-3 3.83l-7.13 32c-.34 1.5-.1 2.98.74 4.3.1.18.18.26.35.43l19.93 25.6c1.08 1.4 2.58 2.15 4.32 2.15h32.07c1.75 0 3.24-.75 4.32-2.16l19.93-25.6c1.08-1.4 1.5-3.06 1.08-4.8l-7.13-31.9c-.34-1.76-1.42-3.08-3-3.83l-28.82-14.22c-.92-.4-1.75-.66-2.66-.58zm0 2.24c.9-.08 1.65.1 2.48.5l27.42 13.46c1.4.75 2.4 2 2.82 3.66l6.73 30.24c.33 1.66 0 3.15-1 4.48l-18.94 24.26c-.98 1.33-2.4 2.08-4.06 2.08h-30.4c-1.67 0-3.08-.75-4.08-2.08l-18.94-24.26c-.08-.08-.16-.25-.25-.4-.83-1.26-1.08-2.6-.74-4.08l6.73-30.24c.4-1.67 1.32-2.9 2.82-3.66l27.42-13.46c.66-.33 1.24-.5 2-.5z" stroke="#000" stroke-opacity="0" stroke-width="3.83" fill="#fff"/><path d="M882.68 252.26c0 .67-.24 1.18-.74 1.54-.48.36-1.16.55-2.05.55-.86 0-1.52-.15-1.98-.44-.46-.28-.76-.73-.9-1.35l1-.2c.1.38.3.66.6.84.3.16.74.25 1.27.25.58 0 1-.1 1.26-.28.27-.18.4-.46.4-.82 0-.28-.08-.5-.27-.68-.2-.17-.5-.32-.9-.44l-.83-.22c-.65-.16-1.12-.33-1.4-.5-.28-.17-.5-.37-.65-.6-.15-.25-.23-.55-.23-.9 0-.64.2-1.13.66-1.46.44-.35 1.1-.52 1.95-.52.76 0 1.36.14 1.8.4.46.3.74.73.86 1.34l-1.03.13c-.06-.32-.23-.57-.5-.73-.3-.17-.65-.25-1.12-.25-.5 0-.9.08-1.13.24-.25.16-.37.4-.37.73 0 .2.05.36.15.5.1.1.25.23.45.32.2.1.62.22 1.26.38.6.15 1.04.3 1.3.44.27.13.48.28.63.44.15.16.27.34.36.56.08.2.12.45.12.72zM887.04 254.2h-1.35l-2.5-7.07h1.2l1.52 4.6.44 1.55.22-.76.25-.77 1.56-4.62h1.2zM891.4 250.65c0 .94.14 1.63.42 2.1.3.44.72.66 1.3.66.4 0 .75-.1 1.02-.32.27-.23.44-.58.5-1.05l1.16.08c-.1.7-.37 1.23-.85 1.64-.47.4-1.07.6-1.8.6-.96 0-1.7-.3-2.2-.93-.5-.62-.75-1.53-.75-2.73s.25-2.1.76-2.72c.5-.63 1.23-.94 2.18-.94.7 0 1.3.2 1.75.57.45.38.74.9.86 1.55l-1.17.1c-.07-.4-.22-.72-.46-.94-.25-.24-.6-.35-1.03-.35-.6 0-1.03.2-1.3.62-.28.42-.4 1.1-.4 2.1z" stroke="#000" stroke-opacity="0" fill="#fff"/><path d="M861.57 227.86h13.4v9.7h-13.4zM879.84 227.86h13.4v9.7h-13.4zM898.12 227.86h13.4v9.7h-13.4zM875.93 199.14h21.22v9.7h-21.22z" stroke="#000" stroke-opacity="0" stroke-width="3.77" fill="#fff"/><path d="M885.3 208.82v8.26H868.3c-.68 0-1.22.57-1.22 1.26v9.5h2.42v-8.25h17.05c.68 0 1.22-.56 1.22-1.26v-9.52z" stroke="#000" stroke-opacity="0" stroke-width="3.77" fill="#fff"/><path d="M885.32 208.82v9.52c0 .7.54 1.25 1.23 1.25h17.03v8.25h2.44v-9.5c0-.7-.54-1.27-1.22-1.27h-17.05v-8.26z" stroke="#000" stroke-opacity="0" stroke-width="3.77" fill="#fff"/><path d="M885.28 208.82v9.52c0 .15.02.3.08.43v9.08h2.44v-9.5c0-.17-.03-.3-.08-.45v-9.08z" stroke="#000" stroke-opacity="0" stroke-width="3.77" fill="#fff"/><use xlink:href="#a" transform="matrix(1,0,0,1,815.0000000000001,272.0769230769231) translate(11.990234374999986 17.7734375)"/><path d="M566.95 367.2c-.93.1-1.68.3-2.43.67l-32.36 15.95c-1.77.84-3 2.33-3.36 4.3l-8.02 35.9c-.37 1.67-.1 3.35.84 4.84.1.2.2.28.37.47l22.38 28.73c1.2 1.58 2.9 2.42 4.85 2.42h36c1.96 0 3.64-.84 4.85-2.42l22.4-28.73c1.2-1.58 1.67-3.45 1.2-5.4l-8.02-35.82c-.37-1.95-1.6-3.44-3.36-4.28l-32.37-15.95c-1.02-.47-1.95-.75-2.98-.66z" stroke="#000" stroke-opacity="0" stroke-width="3.83" fill="#326ce5"/><path d="M566.94 364.62c-1 .1-1.78.3-2.56.68l-34.17 16.84c-1.86.9-3.14 2.46-3.54 4.53l-8.46 37.9c-.4 1.78-.1 3.55.88 5.13.1.2.2.3.4.5l23.63 30.32c1.3 1.67 3.06 2.56 5.13 2.56h38c2.07 0 3.84-.9 5.12-2.56l23.63-30.33c1.28-1.68 1.78-3.65 1.28-5.62l-8.46-37.9c-.4-2.08-1.68-3.65-3.55-4.54L570.1 365.3c-1.1-.5-2.08-.78-3.16-.68zm0 2.65c1.08-.1 1.96.1 2.95.6l32.48 15.95c1.68.88 2.86 2.36 3.35 4.33L613.7 424c.4 1.96 0 3.73-1.18 5.3l-22.45 28.76c-1.18 1.57-2.85 2.46-4.82 2.46H549.2c-1.96 0-3.63-.9-4.8-2.46l-22.46-28.76c-.1-.1-.2-.3-.3-.5-.98-1.46-1.28-3.04-.88-4.8l7.97-35.85c.5-1.97 1.58-3.45 3.35-4.33l32.5-15.96c.78-.4 1.47-.6 2.36-.68z" stroke="#000" stroke-opacity="0" stroke-width="3.83" fill="#fff"/><path d="M557.97 442.43v-1.34h1.35v1.33zm0 10.17v-8.4h1.35v8.4zM566.57 452.6v-5.33c0-.54-.05-.97-.16-1.28-.1-.3-.26-.54-.5-.67-.22-.13-.56-.2-1-.2-.66 0-1.18.23-1.55.7-.37.45-.56 1.1-.56 1.9v4.87h-1.37V446c0-.98 0-1.57-.04-1.8h1.26c0 .03.02.1.02.22 0 .1 0 .24.02.4l.03.82h.02c.3-.58.67-1 1.07-1.22.4-.25.92-.37 1.53-.37.9 0 1.55.23 1.96.7.42.45.63 1.2.63 2.26v5.6zM573.06 455.9c-.9 0-1.6-.2-2.13-.56-.52-.35-.85-.86-1-1.52l1.35-.2c.1.4.3.68.6.9.3.2.72.3 1.22.3 1.35 0 2.02-.8 2.02-2.44v-1.35h-.02c-.25.55-.6.95-1.05 1.22-.44.27-.97.4-1.56.4-1 0-1.75-.33-2.22-1.02-.46-.68-.7-1.76-.7-3.22 0-1.47.25-2.57.76-3.26.5-.7 1.27-1.07 2.3-1.07.57 0 1.07.14 1.5.42.42.26.75.64.98 1.14l.05-.8c.02-.4.03-.6.05-.64h1.3c-.04.3-.06.87-.06 1.74v6.42c0 2.35-1.13 3.53-3.4 3.53zm2.06-7.5c0-.7-.1-1.27-.27-1.76-.18-.5-.44-.88-.77-1.14-.33-.26-.7-.4-1.1-.4-.7 0-1.2.27-1.53.8-.3.5-.47 1.34-.47 2.5 0 1.14.15 1.97.45 2.47.3.5.8.75 1.5.75.44 0 .82-.13 1.15-.4.33-.25.6-.6.77-1.1.18-.48.27-1.05.27-1.72z" stroke="#000" stroke-opacity="0" fill="#fff"/><path d="M582.22 435.15h-12.36l-26.9-34.62h-7.75v-11.35h12.62l26.9 34.7h7.5v-9l17.04 14.6-17.04 14.66zm-13.52-26.7l6.02-7.8h7.5v9l17.04-14.6-17.04-14.66v8.98h-12.36l-8 10.26zm-19.6 7.64l-6.14 7.9h-7.75v11.35h12.62l8.07-10.46z" stroke="#000" stroke-opacity="0" stroke-width="3.77" fill="#fff"/><use xlink:href="#b" transform="matrix(1,0,0,1,488,472.07692307692315) translate(32.825737847222214 17.7734375)"/><path d="M1739.77 202.1c-.76.1-1.36.24-1.97.54l-26.3 12.96c-1.44.68-2.42 1.9-2.72 3.5l-6.52 29.16c-.3 1.37-.08 2.73.68 3.94.08.15.15.23.3.38l18.2 23.34c.98 1.3 2.34 1.97 3.93 1.97h29.26c1.6 0 2.95-.7 3.94-1.98l18.18-23.34c1-1.3 1.37-2.8 1-4.4l-6.53-29.1c-.3-1.6-1.3-2.8-2.73-3.48l-26.3-12.96c-.84-.38-1.6-.6-2.43-.53z" stroke="#000" stroke-opacity="0" stroke-width="3.83" fill="#326ce5"/><path d="M1739.76 200c-.8.08-1.44.24-2.08.56l-27.76 13.68c-1.52.72-2.56 2-2.88 3.68l-6.88 30.8c-.32 1.44-.08 2.88.72 4.16.08.16.16.24.32.4l19.2 24.64c1.04 1.36 2.48 2.08 4.16 2.08h30.88c1.68 0 3.12-.72 4.16-2.08l19.2-24.64c1.04-1.36 1.44-2.96 1.04-4.56l-6.88-30.8c-.32-1.68-1.36-2.96-2.88-3.68l-27.76-13.68c-.88-.4-1.68-.64-2.56-.56zm0 2.16c.88-.08 1.6.08 2.4.48l26.4 12.96c1.36.72 2.32 1.92 2.72 3.52l6.48 29.12c.32 1.6 0 3.04-.96 4.32l-18.24 23.36c-.96 1.28-2.32 2-3.92 2h-29.28c-1.6 0-2.96-.72-3.92-2l-18.24-23.36c-.08-.08-.16-.24-.24-.4-.8-1.2-1.04-2.48-.72-3.92l6.48-29.12c.4-1.6 1.28-2.8 2.72-3.52l26.4-12.96c.64-.32 1.2-.48 1.92-.56z" stroke="#000" stroke-opacity="0" stroke-width="3.83" fill="#fff"/><path d="M1731.2 220.35v3.4h2.33v-2.2h4.85v-2.42h-6c-.97 0-1.2.33-1.2 1.22zm11.88 1.2h9.38v-2.42h-9.38zm14.07 0h2.98v4.2h2.34v-5.4c0-.96-.5-1.2-1.2-1.22h-4.12zm-25.96 8.26v8.47h2.33v-9.67h-2.34zm28.93 2v8.48h2.34v-9.7h-2.34zm-26 10.7h9.38v-2.43h-9.37zm19.43 0h4.03v-2.43h-4.04z" stroke="#000" stroke-opacity="0" stroke-width="3.77" fill="#fff"/><path d="M1724.36 226.8v4.4h2.35V228h3.92v-2.42h-5.07c-.97 0-1.2.33-1.2 1.22zm10.98 1.2h9.35v-2.42h-9.36zm14.05 0h3.9v3.24h2.34v-4.44c0-.75-.3-1.24-1.15-1.22h-5.1zm-25.04 9.24v8.46h2.35v-9.67h-2.34zm28.94.05v8.45h2.34v-9.67h-2.34zm-25.06 11.65h9.38v-2.4h-9.38zm14.08 0h9.38v-2.4h-9.38z" stroke="#000" stroke-opacity="0" stroke-width="3.77" fill="#fff"/><path d="M1717.53 254.22v-22.2h29.95c.94 0 1.34.8 1.34 1.4l-.03 20.75c-.04.8-.67 1.24-1.3 1.2h-28.78c-.53 0-1.22-.43-1.2-1.15z" stroke="#000" stroke-opacity="0" stroke-width="3.77" fill="#fff"/><path d="M1736.07 271.12v-5.22c0-.48-.02-1-.04-1.6h1.04l.05 1.4h.02c.17-.58.38-.98.6-1.2.23-.2.56-.32.97-.32.16 0 .3.02.46.06v1.05c-.15-.06-.34-.08-.6-.08-.45 0-.8.2-1.03.6-.24.42-.37 1-.37 1.75v3.55zM1745.18 269.24c0 .64-.23 1.14-.7 1.5-.48.33-1.13.5-1.98.5-.82 0-1.46-.13-1.9-.4-.45-.3-.74-.72-.87-1.32l.97-.2c.1.37.3.64.57.82.3.17.7.25 1.23.25.56 0 .96-.1 1.22-.28.26-.17.4-.44.4-.8 0-.26-.1-.48-.27-.65-.18-.16-.47-.3-.87-.4l-.8-.23c-.62-.17-1.07-.33-1.34-.5-.27-.15-.48-.35-.62-.58-.16-.23-.23-.52-.23-.85 0-.6.2-1.08.63-1.4.43-.34 1.06-.5 1.88-.5.74 0 1.32.14 1.75.4.43.26.7.7.82 1.27l-1 .13c-.06-.3-.22-.54-.5-.7-.25-.16-.6-.24-1.06-.24-.48 0-.85.08-1.1.23-.22.15-.34.38-.34.7 0 .2.05.35.14.48.1.12.24.23.44.32.2.1.6.2 1.2.36.6.15 1 .3 1.27.42.26.13.47.27.6.43.16.16.28.34.36.55.08.2.12.43.12.7z" stroke="#000" stroke-opacity="0" fill="#fff"/><path d="M1736.07 271.15v-5.23c0-.48-.02-1-.04-1.6h1.04l.05 1.4h.02c.17-.57.38-.98.6-1.2.23-.2.56-.3.97-.3.16 0 .3 0 .46.05v1.04c-.15-.03-.34-.05-.6-.05-.45 0-.8.2-1.03.6-.24.4-.37 1-.37 1.75v3.55zM1745.18 269.27c0 .64-.23 1.13-.7 1.48-.48.35-1.13.53-1.98.53-.82 0-1.46-.14-1.9-.42-.45-.28-.74-.72-.87-1.3l.97-.2c.1.36.3.63.57.8.3.17.7.26 1.23.26.56 0 .96-.1 1.22-.27.26-.18.4-.45.4-.8 0-.27-.1-.48-.27-.65-.18-.17-.47-.3-.87-.4l-.8-.23c-.62-.17-1.07-.33-1.34-.5-.27-.16-.48-.35-.62-.6-.16-.2-.23-.5-.23-.83 0-.62.2-1.1.63-1.42.43-.33 1.06-.5 1.88-.5.74 0 1.32.14 1.75.4.43.27.7.7.82 1.28l-1 .12c-.06-.3-.22-.53-.5-.7-.25-.15-.6-.23-1.06-.23-.48 0-.85.07-1.1.22-.22.16-.34.4-.34.7 0 .2.05.36.14.48.1.12.24.24.44.32.2.1.6.2 1.2.37.6.14 1 .28 1.27.4.26.14.47.28.6.43.16.16.28.34.36.55.08.2.12.43.12.7z" stroke="#000" stroke-opacity="0" fill="#fff"/><path d="M886.3 365.26c-.8.08-1.42.24-2.04.55l-27.3 13.47c-1.5.7-2.53 1.97-2.85 3.62l-6.75 30.3c-.32 1.4-.08 2.82.7 4.08.08.16.16.23.32.4l18.9 24.23c1 1.35 2.43 2.06 4.08 2.06h30.38c1.65 0 3.07-.7 4.1-2.05l18.88-24.23c1.03-1.34 1.42-2.9 1.03-4.56l-6.77-30.2c-.3-1.66-1.34-2.92-2.83-3.63l-27.3-13.46c-.88-.38-1.66-.62-2.53-.54z" stroke="#000" stroke-opacity="0" stroke-width="3.83" fill="#326ce5"/><path d="M886.3 363.08c-.84.08-1.5.25-2.17.58l-28.83 14.2c-1.58.75-2.66 2.08-3 3.83l-7.13 31.97c-.34 1.5-.1 3 .74 4.32.1.16.18.24.35.4l19.93 25.6c1.08 1.4 2.58 2.15 4.32 2.15h32.07c1.75 0 3.24-.74 4.32-2.16l19.93-25.6c1.08-1.4 1.5-3.07 1.08-4.8l-7.13-31.9c-.34-1.76-1.42-3.1-3-3.84l-28.82-14.2c-.92-.42-1.75-.67-2.66-.58zm0 2.24c.9-.08 1.65.08 2.48.5l27.42 13.46c1.4.74 2.4 2 2.82 3.65l6.73 30.24c.33 1.66 0 3.16-1 4.5L905.8 441.9c-.98 1.33-2.4 2.07-4.06 2.07h-30.4c-1.67 0-3.08-.75-4.08-2.08l-18.94-24.26c-.08-.08-.16-.25-.25-.42-.83-1.24-1.08-2.57-.74-4.07l6.73-30.24c.4-1.66 1.32-2.9 2.82-3.65l27.42-13.46c.66-.33 1.24-.5 2-.5z" stroke="#000" stroke-opacity="0" stroke-width="3.83" fill="#fff"/><path d="M882.68 435.34c0 .66-.24 1.17-.74 1.54-.48.36-1.16.54-2.05.54-.86 0-1.52-.14-1.98-.43-.46-.3-.76-.76-.9-1.37l1-.2c.1.37.3.65.6.84.3.17.74.26 1.27.26.58 0 1-.1 1.26-.28.27-.18.4-.46.4-.83 0-.27-.08-.5-.27-.68-.2-.17-.5-.3-.9-.43l-.83-.2c-.65-.18-1.12-.35-1.4-.52-.28-.17-.5-.37-.65-.62-.15-.23-.23-.53-.23-.87 0-.66.2-1.15.66-1.5.44-.33 1.1-.5 1.95-.5.76 0 1.36.14 1.8.4.46.3.74.73.86 1.34l-1.03.13c-.06-.32-.23-.56-.5-.73-.3-.16-.65-.25-1.12-.25-.5 0-.9.08-1.13.24-.25.16-.37.4-.37.73 0 .2.05.36.15.5.1.12.25.24.45.33.2.1.62.22 1.26.38.6.15 1.04.3 1.3.44.27.13.48.27.63.43.15.17.27.35.36.57.08.2.12.45.12.72zM887.04 437.28h-1.35l-2.5-7.08h1.2l1.52 4.6.44 1.56.22-.76.25-.77 1.56-4.63h1.2zM891.4 433.72c0 .94.14 1.64.42 2.1.3.45.72.67 1.3.67.4 0 .75-.12 1.02-.35.27-.22.44-.57.5-1.04l1.16.1c-.1.67-.37 1.2-.85 1.6-.47.42-1.07.62-1.8.62-.96 0-1.7-.3-2.2-.93-.5-.64-.75-1.55-.75-2.75s.25-2.1.76-2.73c.5-.62 1.23-.94 2.18-.94.7 0 1.3.2 1.75.57.45.37.74.9.86 1.55l-1.17.1c-.07-.4-.22-.72-.46-.95-.25-.23-.6-.34-1.03-.34-.6 0-1.03.2-1.3.63-.28.4-.4 1.1-.4 2.1z" stroke="#000" stroke-opacity="0" fill="#fff"/><path d="M861.57 410.94h13.4v9.7h-13.4zM879.84 410.94h13.4v9.7h-13.4zM898.12 410.94h13.4v9.7h-13.4zM875.93 382.22h21.22v9.7h-21.22z" stroke="#000" stroke-opacity="0" stroke-width="3.77" fill="#fff"/><path d="M885.3 391.9v8.26H868.3c-.68 0-1.22.57-1.22 1.25v9.53h2.42v-8.26h17.05c.68 0 1.22-.55 1.22-1.26v-9.5z" stroke="#000" stroke-opacity="0" stroke-width="3.77" fill="#fff"/><path d="M885.32 391.9v9.5c0 .72.54 1.27 1.23 1.27h17.03v8.26h2.44v-9.52c0-.67-.54-1.24-1.22-1.24h-17.05v-8.26z" stroke="#000" stroke-opacity="0" stroke-width="3.77" fill="#fff"/><path d="M885.28 391.9v9.5c0 .17.02.32.08.45v9.08h2.44v-9.52c0-.14-.03-.27-.08-.42v-9.08z" stroke="#000" stroke-opacity="0" stroke-width="3.77" fill="#fff"/><use xlink:href="#c" transform="matrix(1,0,0,1,815.0000000000001,455.1538461538462) translate(-28.0162760416667 17.7734375)"/><path d="M886.3 562.18c-.8.08-1.42.24-2.04.56l-27.3 13.45c-1.5.7-2.53 1.96-2.85 3.6l-6.75 30.3c-.32 1.43-.08 2.84.7 4.1.08.16.16.24.32.4l18.9 24.23c1 1.34 2.43 2.05 4.08 2.05h30.38c1.65 0 3.07-.7 4.1-2.05l18.88-24.23c1.03-1.34 1.42-2.92 1.03-4.57l-6.77-30.22c-.3-1.64-1.34-2.9-2.83-3.6l-27.3-13.46c-.88-.4-1.66-.63-2.53-.56z" stroke="#000" stroke-opacity="0" stroke-width="3.83" fill="#326ce5"/><path d="M886.3 560c-.84.08-1.5.25-2.17.58l-28.83 14.2c-1.58.76-2.66 2.08-3 3.83l-7.13 32c-.34 1.5-.1 2.98.74 4.3.1.18.18.26.35.43l19.93 25.6c1.08 1.4 2.58 2.15 4.32 2.15h32.07c1.75 0 3.24-.75 4.32-2.16l19.93-25.6c1.08-1.4 1.5-3.06 1.08-4.8l-7.13-31.9c-.34-1.76-1.42-3.08-3-3.83l-28.82-14.22c-.92-.4-1.75-.66-2.66-.58zm0 2.24c.9-.08 1.65.1 2.48.5l27.42 13.46c1.4.75 2.4 2 2.82 3.66l6.73 30.24c.33 1.66 0 3.15-1 4.48l-18.94 24.26c-.98 1.33-2.4 2.08-4.06 2.08h-30.4c-1.67 0-3.08-.75-4.08-2.08l-18.94-24.26c-.08-.08-.16-.25-.25-.4-.83-1.26-1.08-2.6-.74-4.08l6.73-30.24c.4-1.67 1.32-2.9 2.82-3.66l27.42-13.46c.66-.33 1.24-.5 2-.5z" stroke="#000" stroke-opacity="0" stroke-width="3.83" fill="#fff"/><path d="M882.68 632.26c0 .67-.24 1.18-.74 1.54-.48.36-1.16.55-2.05.55-.86 0-1.52-.15-1.98-.44-.46-.28-.76-.73-.9-1.35l1-.2c.1.38.3.66.6.84.3.16.74.25 1.27.25.58 0 1-.1 1.26-.28.27-.18.4-.46.4-.82 0-.28-.08-.5-.27-.68-.2-.17-.5-.32-.9-.44l-.83-.22c-.65-.16-1.12-.33-1.4-.5-.28-.17-.5-.37-.65-.6-.15-.25-.23-.55-.23-.9 0-.64.2-1.13.66-1.46.44-.35 1.1-.52 1.95-.52.76 0 1.36.14 1.8.4.46.3.74.73.86 1.34l-1.03.13c-.06-.32-.23-.57-.5-.73-.3-.17-.65-.25-1.12-.25-.5 0-.9.08-1.13.24-.25.16-.37.4-.37.73 0 .2.05.36.15.5.1.1.25.23.45.32.2.1.62.22 1.26.38.6.15 1.04.3 1.3.44.27.13.48.28.63.44.15.16.27.34.36.56.08.2.12.45.12.72zM887.04 634.2h-1.35l-2.5-7.07h1.2l1.52 4.6.44 1.55.22-.76.25-.77 1.56-4.62h1.2zM891.4 630.65c0 .94.14 1.63.42 2.1.3.44.72.66 1.3.66.4 0 .75-.1 1.02-.32.27-.23.44-.58.5-1.05l1.16.08c-.1.7-.37 1.23-.85 1.64-.47.4-1.07.6-1.8.6-.96 0-1.7-.3-2.2-.93-.5-.62-.75-1.53-.75-2.73s.25-2.1.76-2.72c.5-.63 1.23-.94 2.18-.94.7 0 1.3.2 1.75.57.45.38.74.9.86 1.55l-1.17.1c-.07-.4-.22-.72-.46-.94-.25-.24-.6-.35-1.03-.35-.6 0-1.03.2-1.3.62-.28.42-.4 1.1-.4 2.1z" stroke="#000" stroke-opacity="0" fill="#fff"/><path d="M861.57 607.86h13.4v9.7h-13.4zM879.84 607.86h13.4v9.7h-13.4zM898.12 607.86h13.4v9.7h-13.4zM875.93 579.14h21.22v9.7h-21.22z" stroke="#000" stroke-opacity="0" stroke-width="3.77" fill="#fff"/><path d="M885.3 588.82v8.26H868.3c-.68 0-1.22.57-1.22 1.26v9.5h2.42v-8.25h17.05c.68 0 1.22-.56 1.22-1.26v-9.52z" stroke="#000" stroke-opacity="0" stroke-width="3.77" fill="#fff"/><path d="M885.32 588.82v9.52c0 .7.54 1.25 1.23 1.25h17.03v8.25h2.44v-9.5c0-.7-.54-1.27-1.22-1.27h-17.05v-8.26z" stroke="#000" stroke-opacity="0" stroke-width="3.77" fill="#fff"/><path d="M885.28 588.82v9.52c0 .15.02.3.08.43v9.08h2.44v-9.5c0-.17-.03-.3-.08-.45v-9.08z" stroke="#000" stroke-opacity="0" stroke-width="3.77" fill="#fff"/><use xlink:href="#d" transform="matrix(1,0,0,1,815.0000000000001,652.0769230769231) translate(-21.348524305555586 17.7734375)"/><path d="M1449.83 101.58c-.57.06-1.02.17-1.48.4l-19.72 9.72c-1.08.5-1.82 1.42-2.05 2.6l-4.9 21.9c-.2 1.02-.04 2.04.53 2.95.06.12.12.17.23.3l13.64 17.5c.74.96 1.77 1.47 2.96 1.47h21.94c1.2 0 2.22-.5 2.95-1.48l13.65-17.5c.73-.97 1.02-2.1.73-3.3l-4.88-21.83c-.23-1.18-.97-2.1-2.05-2.6l-19.72-9.72c-.63-.28-1.2-.45-1.82-.4z" stroke="#000" stroke-opacity="0" stroke-width="3.83" fill="#326ce5"/><path d="M1449.82 100c-.6.06-1.08.18-1.56.42l-20.82 10.26c-1.14.54-1.92 1.5-2.16 2.76l-5.16 23.1c-.24 1.08-.06 2.16.54 3.12.06.12.12.18.24.3l14.4 18.48c.78 1.02 1.86 1.56 3.12 1.56h23.16c1.26 0 2.34-.54 3.12-1.56l14.4-18.48c.78-1.02 1.08-2.22.78-3.42l-5.16-23.1c-.24-1.26-1.02-2.22-2.16-2.76l-20.82-10.26c-.66-.3-1.26-.48-1.92-.42zm0 1.62c.66-.06 1.2.06 1.8.36l19.8 9.72c1.02.54 1.74 1.44 2.04 2.64l4.86 21.84c.24 1.2 0 2.28-.72 3.24l-13.68 17.52c-.72.96-1.74 1.5-2.94 1.5h-21.96c-1.2 0-2.22-.54-2.94-1.5l-13.68-17.52c-.06-.06-.12-.18-.18-.3-.6-.9-.78-1.86-.54-2.94l4.86-21.84c.3-1.2.96-2.1 2.04-2.64l19.8-9.72c.48-.24.9-.36 1.44-.42z" stroke="#000" stroke-opacity="0" stroke-width="3.83" fill="#fff"/><path d="M1447 151.03c0 1.8-.6 2.68-1.8 2.68-.78 0-1.3-.3-1.55-.88h-.02v2.8h-.8v-6.08c0-.52-.02-.87-.04-1.04h.8v.13c0 .08 0 .2.02.36l.02.32c.16-.3.35-.54.6-.7.24-.14.55-.2.95-.2.6 0 1.06.2 1.36.62.3.42.45 1.1.45 2zm-.85.02c0-.7-.1-1.22-.28-1.52-.2-.3-.5-.46-.9-.46-.32 0-.57.07-.76.2-.18.15-.32.37-.4.68-.1.3-.16.7-.16 1.16 0 .7.1 1.18.32 1.5.2.32.54.47 1 .47.42 0 .7-.15.9-.46.2-.3.3-.82.3-1.55zM1452.24 151.05c0 .9-.2 1.57-.57 2-.4.44-.94.66-1.67.66-.72 0-1.27-.22-1.64-.67-.37-.46-.55-1.12-.55-1.98 0-1.76.75-2.64 2.23-2.64.76 0 1.3.22 1.67.65.36.43.54 1.1.54 2zm-.87 0c0-.7-.1-1.22-.3-1.54-.2-.3-.55-.46-1.03-.46s-.83.16-1.05.5c-.22.3-.33.82-.33 1.5 0 .7.1 1.2.32 1.53.2.34.54.5 1 .5.5 0 .84-.15 1.05-.48.2-.34.32-.85.32-1.55zM1456.4 152.8c-.15.32-.36.55-.6.7-.26.14-.58.2-.95.2-.62 0-1.1-.2-1.38-.65-.3-.43-.44-1.1-.44-1.97 0-1.8.6-2.67 1.82-2.67.38 0 .7.08.94.22s.45.37.6.67V146.6h.82v5.96c0 .53 0 .88.03 1.06h-.8l-.02-.36v-.47zm-2.5-1.75c0 .72.1 1.23.27 1.53.2.32.48.47.9.47.46 0 .8-.17 1-.5.22-.33.33-.85.33-1.56 0-.68-.1-1.18-.32-1.5-.2-.3-.54-.47-1-.47-.42 0-.72.17-.9.5-.2.3-.28.8-.28 1.52z" stroke="#000" stroke-opacity="0" fill="#fff"/><path d="M1437.96 120.1l12.04-3.6 12.04 3.6-12.04 3.6zM1437.96 121.48v13.2l11.22 6.4.05-16.15zM1462.04 121.48v13.2l-11.22 6.4-.05-16.15z" stroke="#000" stroke-opacity="0" stroke-width="3.77" fill="#fff"/><path d="M1549.83 101.58c-.57.06-1.02.17-1.48.4l-19.72 9.72c-1.08.5-1.82 1.42-2.05 2.6l-4.9 21.9c-.2 1.02-.04 2.04.53 2.95.06.12.12.17.23.3l13.64 17.5c.74.96 1.77 1.47 2.96 1.47h21.94c1.2 0 2.22-.5 2.95-1.48l13.65-17.5c.73-.97 1.02-2.1.73-3.3l-4.88-21.83c-.23-1.18-.97-2.1-2.05-2.6l-19.72-9.72c-.63-.28-1.2-.45-1.82-.4z" stroke="#000" stroke-opacity="0" stroke-width="3.83" fill="#326ce5"/><path d="M1549.82 100c-.6.06-1.08.18-1.56.42l-20.82 10.26c-1.14.54-1.92 1.5-2.16 2.76l-5.16 23.1c-.24 1.08-.06 2.16.54 3.12.06.12.12.18.24.3l14.4 18.48c.78 1.02 1.86 1.56 3.12 1.56h23.16c1.26 0 2.34-.54 3.12-1.56l14.4-18.48c.78-1.02 1.08-2.22.78-3.42l-5.16-23.1c-.24-1.26-1.02-2.22-2.16-2.76l-20.82-10.26c-.66-.3-1.26-.48-1.92-.42zm0 1.62c.66-.06 1.2.06 1.8.36l19.8 9.72c1.02.54 1.74 1.44 2.04 2.64l4.86 21.84c.24 1.2 0 2.28-.72 3.24l-13.68 17.52c-.72.96-1.74 1.5-2.94 1.5h-21.96c-1.2 0-2.22-.54-2.94-1.5l-13.68-17.52c-.06-.06-.12-.18-.18-.3-.6-.9-.78-1.86-.54-2.94l4.86-21.84c.3-1.2.96-2.1 2.04-2.64l19.8-9.72c.48-.24.9-.36 1.44-.42z" stroke="#000" stroke-opacity="0" stroke-width="3.83" fill="#fff"/><path d="M1547 151.03c0 1.8-.6 2.68-1.8 2.68-.78 0-1.3-.3-1.55-.88h-.02v2.8h-.8v-6.08c0-.52-.02-.87-.04-1.04h.8v.13c0 .08 0 .2.02.36l.02.32c.16-.3.35-.54.6-.7.24-.14.55-.2.95-.2.6 0 1.06.2 1.36.62.3.42.45 1.1.45 2zm-.85.02c0-.7-.1-1.22-.28-1.52-.2-.3-.5-.46-.9-.46-.32 0-.57.07-.76.2-.18.15-.32.37-.4.68-.1.3-.16.7-.16 1.16 0 .7.1 1.18.32 1.5.2.32.54.47 1 .47.42 0 .7-.15.9-.46.2-.3.3-.82.3-1.55zM1552.24 151.05c0 .9-.2 1.57-.57 2-.4.44-.94.66-1.67.66-.72 0-1.27-.22-1.64-.67-.37-.46-.55-1.12-.55-1.98 0-1.76.75-2.64 2.23-2.64.76 0 1.3.22 1.67.65.36.43.54 1.1.54 2zm-.87 0c0-.7-.1-1.22-.3-1.54-.2-.3-.55-.46-1.03-.46s-.83.16-1.05.5c-.22.3-.33.82-.33 1.5 0 .7.1 1.2.32 1.53.2.34.54.5 1 .5.5 0 .84-.15 1.05-.48.2-.34.32-.85.32-1.55zM1556.4 152.8c-.15.32-.36.55-.6.7-.26.14-.58.2-.95.2-.62 0-1.1-.2-1.38-.65-.3-.43-.44-1.1-.44-1.97 0-1.8.6-2.67 1.82-2.67.38 0 .7.08.94.22s.45.37.6.67V146.6h.82v5.96c0 .53 0 .88.03 1.06h-.8l-.02-.36v-.47zm-2.5-1.75c0 .72.1 1.23.27 1.53.2.32.48.47.9.47.46 0 .8-.17 1-.5.22-.33.33-.85.33-1.56 0-.68-.1-1.18-.32-1.5-.2-.3-.54-.47-1-.47-.42 0-.72.17-.9.5-.2.3-.28.8-.28 1.52z" stroke="#000" stroke-opacity="0" fill="#fff"/><path d="M1537.96 120.1l12.04-3.6 12.04 3.6-12.04 3.6zM1537.96 121.48v13.2l11.22 6.4.05-16.15zM1562.04 121.48v13.2l-11.22 6.4-.05-16.15z" stroke="#000" stroke-opacity="0" stroke-width="3.77" fill="#fff"/><path d="M1449.83 201.58c-.57.06-1.02.17-1.48.4l-19.72 9.72c-1.08.5-1.82 1.42-2.05 2.6l-4.9 21.9c-.2 1.02-.04 2.04.53 2.95.06.12.12.17.23.3l13.64 17.5c.74.96 1.77 1.47 2.96 1.47h21.94c1.2 0 2.22-.5 2.95-1.48l13.65-17.5c.73-.97 1.02-2.1.73-3.3l-4.88-21.83c-.23-1.18-.97-2.1-2.05-2.6l-19.72-9.72c-.63-.28-1.2-.45-1.82-.4z" stroke="#000" stroke-opacity="0" stroke-width="3.83" fill="#326ce5"/><path d="M1449.82 200c-.6.06-1.08.18-1.56.42l-20.82 10.26c-1.14.54-1.92 1.5-2.16 2.76l-5.16 23.1c-.24 1.08-.06 2.16.54 3.12.06.12.12.18.24.3l14.4 18.48c.78 1.02 1.86 1.56 3.12 1.56h23.16c1.26 0 2.34-.54 3.12-1.56l14.4-18.48c.78-1.02 1.08-2.22.78-3.42l-5.16-23.1c-.24-1.26-1.02-2.22-2.16-2.76l-20.82-10.26c-.66-.3-1.26-.48-1.92-.42zm0 1.62c.66-.06 1.2.06 1.8.36l19.8 9.72c1.02.54 1.74 1.44 2.04 2.64l4.86 21.84c.24 1.2 0 2.28-.72 3.24l-13.68 17.52c-.72.96-1.74 1.5-2.94 1.5h-21.96c-1.2 0-2.22-.54-2.94-1.5l-13.68-17.52c-.06-.06-.12-.18-.18-.3-.6-.9-.78-1.86-.54-2.94l4.86-21.84c.3-1.2.96-2.1 2.04-2.64l19.8-9.72c.48-.24.9-.36 1.44-.42z" stroke="#000" stroke-opacity="0" stroke-width="3.83" fill="#fff"/><path d="M1447 251.03c0 1.8-.6 2.68-1.8 2.68-.78 0-1.3-.3-1.55-.88h-.02v2.8h-.8v-6.08c0-.52-.02-.87-.04-1.04h.8v.13c0 .08 0 .2.02.36l.02.32c.16-.3.35-.54.6-.7.24-.14.55-.2.95-.2.6 0 1.06.2 1.36.62.3.42.45 1.1.45 2zm-.85.02c0-.7-.1-1.22-.28-1.52-.2-.3-.5-.46-.9-.46-.32 0-.57.07-.76.2-.18.15-.32.37-.4.68-.1.3-.16.7-.16 1.16 0 .7.1 1.18.32 1.5.2.32.54.47 1 .47.42 0 .7-.15.9-.46.2-.3.3-.82.3-1.55zM1452.24 251.05c0 .9-.2 1.57-.57 2-.4.44-.94.66-1.67.66-.72 0-1.27-.22-1.64-.67-.37-.46-.55-1.12-.55-1.98 0-1.76.75-2.64 2.23-2.64.76 0 1.3.22 1.67.65.36.43.54 1.1.54 2zm-.87 0c0-.7-.1-1.22-.3-1.54-.2-.3-.55-.46-1.03-.46s-.83.16-1.05.5c-.22.3-.33.82-.33 1.5 0 .7.1 1.2.32 1.53.2.34.54.5 1 .5.5 0 .84-.15 1.05-.48.2-.34.32-.85.32-1.55zM1456.4 252.8c-.15.32-.36.55-.6.7-.26.14-.58.2-.95.2-.62 0-1.1-.2-1.38-.65-.3-.43-.44-1.1-.44-1.97 0-1.8.6-2.67 1.82-2.67.38 0 .7.08.94.22s.45.37.6.67V246.6h.82v5.96c0 .53 0 .88.03 1.06h-.8l-.02-.36v-.47zm-2.5-1.75c0 .72.1 1.23.27 1.53.2.32.48.47.9.47.46 0 .8-.17 1-.5.22-.33.33-.85.33-1.56 0-.68-.1-1.18-.32-1.5-.2-.3-.54-.47-1-.47-.42 0-.72.17-.9.5-.2.3-.28.8-.28 1.52z" stroke="#000" stroke-opacity="0" fill="#fff"/><path d="M1437.96 220.1l12.04-3.6 12.04 3.6-12.04 3.6zM1437.96 221.48v13.2l11.22 6.4.05-16.15zM1462.04 221.48v13.2l-11.22 6.4-.05-16.15z" stroke="#000" stroke-opacity="0" stroke-width="3.77" fill="#fff"/><path d="M1549.83 201.58c-.57.06-1.02.17-1.48.4l-19.72 9.72c-1.08.5-1.82 1.42-2.05 2.6l-4.9 21.9c-.2 1.02-.04 2.04.53 2.95.06.12.12.17.23.3l13.64 17.5c.74.96 1.77 1.47 2.96 1.47h21.94c1.2 0 2.22-.5 2.95-1.48l13.65-17.5c.73-.97 1.02-2.1.73-3.3l-4.88-21.83c-.23-1.18-.97-2.1-2.05-2.6l-19.72-9.72c-.63-.28-1.2-.45-1.82-.4z" stroke="#000" stroke-opacity="0" stroke-width="3.83" fill="#326ce5"/><path d="M1549.82 200c-.6.06-1.08.18-1.56.42l-20.82 10.26c-1.14.54-1.92 1.5-2.16 2.76l-5.16 23.1c-.24 1.08-.06 2.16.54 3.12.06.12.12.18.24.3l14.4 18.48c.78 1.02 1.86 1.56 3.12 1.56h23.16c1.26 0 2.34-.54 3.12-1.56l14.4-18.48c.78-1.02 1.08-2.22.78-3.42l-5.16-23.1c-.24-1.26-1.02-2.22-2.16-2.76l-20.82-10.26c-.66-.3-1.26-.48-1.92-.42zm0 1.62c.66-.06 1.2.06 1.8.36l19.8 9.72c1.02.54 1.74 1.44 2.04 2.64l4.86 21.84c.24 1.2 0 2.28-.72 3.24l-13.68 17.52c-.72.96-1.74 1.5-2.94 1.5h-21.96c-1.2 0-2.22-.54-2.94-1.5l-13.68-17.52c-.06-.06-.12-.18-.18-.3-.6-.9-.78-1.86-.54-2.94l4.86-21.84c.3-1.2.96-2.1 2.04-2.64l19.8-9.72c.48-.24.9-.36 1.44-.42z" stroke="#000" stroke-opacity="0" stroke-width="3.83" fill="#fff"/><path d="M1547 251.03c0 1.8-.6 2.68-1.8 2.68-.78 0-1.3-.3-1.55-.88h-.02v2.8h-.8v-6.08c0-.52-.02-.87-.04-1.04h.8v.13c0 .08 0 .2.02.36l.02.32c.16-.3.35-.54.6-.7.24-.14.55-.2.95-.2.6 0 1.06.2 1.36.62.3.42.45 1.1.45 2zm-.85.02c0-.7-.1-1.22-.28-1.52-.2-.3-.5-.46-.9-.46-.32 0-.57.07-.76.2-.18.15-.32.37-.4.68-.1.3-.16.7-.16 1.16 0 .7.1 1.18.32 1.5.2.32.54.47 1 .47.42 0 .7-.15.9-.46.2-.3.3-.82.3-1.55zM1552.24 251.05c0 .9-.2 1.57-.57 2-.4.44-.94.66-1.67.66-.72 0-1.27-.22-1.64-.67-.37-.46-.55-1.12-.55-1.98 0-1.76.75-2.64 2.23-2.64.76 0 1.3.22 1.67.65.36.43.54 1.1.54 2zm-.87 0c0-.7-.1-1.22-.3-1.54-.2-.3-.55-.46-1.03-.46s-.83.16-1.05.5c-.22.3-.33.82-.33 1.5 0 .7.1 1.2.32 1.53.2.34.54.5 1 .5.5 0 .84-.15 1.05-.48.2-.34.32-.85.32-1.55zM1556.4 252.8c-.15.32-.36.55-.6.7-.26.14-.58.2-.95.2-.62 0-1.1-.2-1.38-.65-.3-.43-.44-1.1-.44-1.97 0-1.8.6-2.67 1.82-2.67.38 0 .7.08.94.22s.45.37.6.67V246.6h.82v5.96c0 .53 0 .88.03 1.06h-.8l-.02-.36v-.47zm-2.5-1.75c0 .72.1 1.23.27 1.53.2.32.48.47.9.47.46 0 .8-.17 1-.5.22-.33.33-.85.33-1.56 0-.68-.1-1.18-.32-1.5-.2-.3-.54-.47-1-.47-.42 0-.72.17-.9.5-.2.3-.28.8-.28 1.52z" stroke="#000" stroke-opacity="0" fill="#fff"/><path d="M1537.96 220.1l12.04-3.6 12.04 3.6-12.04 3.6zM1537.96 221.48v13.2l11.22 6.4.05-16.15zM1562.04 221.48v13.2l-11.22 6.4-.05-16.15z" stroke="#000" stroke-opacity="0" stroke-width="3.77" fill="#fff"/><path d="M1449.83 318.5c-.57.06-1.02.18-1.48.4l-19.72 9.72c-1.08.5-1.82 1.42-2.05 2.62l-4.9 21.88c-.2 1.02-.04 2.05.53 2.95.06.12.12.18.23.3l13.64 17.5c.74.96 1.77 1.47 2.96 1.47h21.94c1.2 0 2.22-.5 2.95-1.48l13.65-17.5c.73-.97 1.02-2.1.73-3.3l-4.88-21.82c-.23-1.2-.97-2.1-2.05-2.62l-19.72-9.72c-.63-.28-1.2-.45-1.82-.4z" stroke="#000" stroke-opacity="0" stroke-width="3.83" fill="#326ce5"/><path d="M1449.82 316.92c-.6.06-1.08.18-1.56.42l-20.82 10.26c-1.14.54-1.92 1.5-2.16 2.76l-5.16 23.1c-.24 1.08-.06 2.16.54 3.12.06.12.12.18.24.3l14.4 18.48c.78 1.02 1.86 1.56 3.12 1.56h23.16c1.26 0 2.34-.54 3.12-1.56l14.4-18.48c.78-1.02 1.08-2.22.78-3.42l-5.16-23.1c-.24-1.26-1.02-2.22-2.16-2.76l-20.82-10.26c-.66-.3-1.26-.48-1.92-.42zm0 1.62c.66-.06 1.2.06 1.8.36l19.8 9.72c1.02.54 1.74 1.44 2.04 2.64l4.86 21.84c.24 1.2 0 2.28-.72 3.24l-13.68 17.52c-.72.96-1.74 1.5-2.94 1.5h-21.96c-1.2 0-2.22-.54-2.94-1.5l-13.68-17.52c-.06-.06-.12-.18-.18-.3-.6-.9-.78-1.86-.54-2.94l4.86-21.84c.3-1.2.96-2.1 2.04-2.64l19.8-9.72c.48-.24.9-.36 1.44-.42z" stroke="#000" stroke-opacity="0" stroke-width="3.83" fill="#fff"/><path d="M1447 367.96c0 1.78-.6 2.67-1.8 2.67-.78 0-1.3-.3-1.55-.9h-.02v2.82h-.8v-6.1c0-.5-.02-.86-.04-1.03h.8v.14c0 .08 0 .2.02.36l.02.32c.16-.3.35-.54.6-.68.24-.15.55-.23.95-.23.6 0 1.06.2 1.36.64.3.42.45 1.08.45 2zm-.85 0c0-.7-.1-1.2-.28-1.5-.2-.32-.5-.47-.9-.47-.32 0-.57.06-.76.2-.18.14-.32.37-.4.67-.1.3-.16.7-.16 1.17 0 .67.1 1.16.32 1.48.2.32.54.48 1 .48.42 0 .7-.15.9-.46.2-.3.3-.83.3-1.57zM1452.24 367.98c0 .9-.2 1.56-.57 2-.4.43-.94.65-1.67.65-.72 0-1.27-.23-1.64-.68-.37-.46-.55-1.12-.55-1.97 0-1.77.75-2.65 2.23-2.65.76 0 1.3.22 1.67.65.36.43.54 1.1.54 2zm-.87 0c0-.7-.1-1.22-.3-1.54-.2-.32-.55-.48-1.03-.48s-.83.16-1.05.5c-.22.3-.33.82-.33 1.52 0 .67.1 1.18.32 1.52.2.34.54.5 1 .5.5 0 .84-.16 1.05-.5.2-.32.32-.83.32-1.52zM1456.4 369.7c-.15.34-.36.58-.6.72-.26.14-.58.2-.95.2-.62 0-1.1-.2-1.38-.64-.3-.44-.44-1.1-.44-1.98 0-1.78.6-2.67 1.82-2.67.38 0 .7.07.94.2.24.16.45.38.6.7v-2.71h.82v5.96c0 .53 0 .9.03 1.06h-.8l-.02-.36v-.47zm-2.5-1.73c0 .72.1 1.23.27 1.54.2.32.48.48.9.48.46 0 .8-.17 1-.5.22-.34.33-.86.33-1.56 0-.68-.1-1.18-.32-1.5-.2-.3-.54-.46-1-.46-.42 0-.72.16-.9.48-.2.3-.28.82-.28 1.53z" stroke="#000" stroke-opacity="0" fill="#fff"/><path d="M1437.96 337.02l12.04-3.6 12.04 3.6-12.04 3.6zM1437.96 338.4v13.2l11.22 6.42.05-16.17zM1462.04 338.4v13.2l-11.22 6.42-.05-16.17z" stroke="#000" stroke-opacity="0" stroke-width="3.77" fill="#fff"/><path d="M1549.83 318.5c-.57.06-1.02.18-1.48.4l-19.72 9.72c-1.08.5-1.82 1.42-2.05 2.62l-4.9 21.88c-.2 1.02-.04 2.05.53 2.95.06.12.12.18.23.3l13.64 17.5c.74.96 1.77 1.47 2.96 1.47h21.94c1.2 0 2.22-.5 2.95-1.48l13.65-17.5c.73-.97 1.02-2.1.73-3.3l-4.88-21.82c-.23-1.2-.97-2.1-2.05-2.62l-19.72-9.72c-.63-.28-1.2-.45-1.82-.4z" stroke="#000" stroke-opacity="0" stroke-width="3.83" fill="#326ce5"/><path d="M1549.82 316.92c-.6.06-1.08.18-1.56.42l-20.82 10.26c-1.14.54-1.92 1.5-2.16 2.76l-5.16 23.1c-.24 1.08-.06 2.16.54 3.12.06.12.12.18.24.3l14.4 18.48c.78 1.02 1.86 1.56 3.12 1.56h23.16c1.26 0 2.34-.54 3.12-1.56l14.4-18.48c.78-1.02 1.08-2.22.78-3.42l-5.16-23.1c-.24-1.26-1.02-2.22-2.16-2.76l-20.82-10.26c-.66-.3-1.26-.48-1.92-.42zm0 1.62c.66-.06 1.2.06 1.8.36l19.8 9.72c1.02.54 1.74 1.44 2.04 2.64l4.86 21.84c.24 1.2 0 2.28-.72 3.24l-13.68 17.52c-.72.96-1.74 1.5-2.94 1.5h-21.96c-1.2 0-2.22-.54-2.94-1.5l-13.68-17.52c-.06-.06-.12-.18-.18-.3-.6-.9-.78-1.86-.54-2.94l4.86-21.84c.3-1.2.96-2.1 2.04-2.64l19.8-9.72c.48-.24.9-.36 1.44-.42z" stroke="#000" stroke-opacity="0" stroke-width="3.83" fill="#fff"/><path d="M1547 367.96c0 1.78-.6 2.67-1.8 2.67-.78 0-1.3-.3-1.55-.9h-.02v2.82h-.8v-6.1c0-.5-.02-.86-.04-1.03h.8v.14c0 .08 0 .2.02.36l.02.32c.16-.3.35-.54.6-.68.24-.15.55-.23.95-.23.6 0 1.06.2 1.36.64.3.42.45 1.08.45 2zm-.85 0c0-.7-.1-1.2-.28-1.5-.2-.32-.5-.47-.9-.47-.32 0-.57.06-.76.2-.18.14-.32.37-.4.67-.1.3-.16.7-.16 1.17 0 .67.1 1.16.32 1.48.2.32.54.48 1 .48.42 0 .7-.15.9-.46.2-.3.3-.83.3-1.57zM1552.24 367.98c0 .9-.2 1.56-.57 2-.4.43-.94.65-1.67.65-.72 0-1.27-.23-1.64-.68-.37-.46-.55-1.12-.55-1.97 0-1.77.75-2.65 2.23-2.65.76 0 1.3.22 1.67.65.36.43.54 1.1.54 2zm-.87 0c0-.7-.1-1.22-.3-1.54-.2-.32-.55-.48-1.03-.48s-.83.16-1.05.5c-.22.3-.33.82-.33 1.52 0 .67.1 1.18.32 1.52.2.34.54.5 1 .5.5 0 .84-.16 1.05-.5.2-.32.32-.83.32-1.52zM1556.4 369.7c-.15.34-.36.58-.6.72-.26.14-.58.2-.95.2-.62 0-1.1-.2-1.38-.64-.3-.44-.44-1.1-.44-1.98 0-1.78.6-2.67 1.82-2.67.38 0 .7.07.94.2.24.16.45.38.6.7v-2.71h.82v5.96c0 .53 0 .9.03 1.06h-.8l-.02-.36v-.47zm-2.5-1.73c0 .72.1 1.23.27 1.54.2.32.48.48.9.48.46 0 .8-.17 1-.5.22-.34.33-.86.33-1.56 0-.68-.1-1.18-.32-1.5-.2-.3-.54-.46-1-.46-.42 0-.72.16-.9.48-.2.3-.28.82-.28 1.53z" stroke="#000" stroke-opacity="0" fill="#fff"/><path d="M1537.96 337.02l12.04-3.6 12.04 3.6-12.04 3.6zM1537.96 338.4v13.2l11.22 6.42.05-16.17zM1562.04 338.4v13.2l-11.22 6.42-.05-16.17z" stroke="#000" stroke-opacity="0" stroke-width="3.77" fill="#fff"/><path d="M1449.83 418.5c-.57.06-1.02.18-1.48.4l-19.72 9.72c-1.08.5-1.82 1.42-2.05 2.62l-4.9 21.88c-.2 1.02-.04 2.05.53 2.95.06.12.12.18.23.3l13.64 17.5c.74.96 1.77 1.47 2.96 1.47h21.94c1.2 0 2.22-.5 2.95-1.48l13.65-17.5c.73-.97 1.02-2.1.73-3.3l-4.88-21.82c-.23-1.2-.97-2.1-2.05-2.62l-19.72-9.72c-.63-.28-1.2-.45-1.82-.4z" stroke="#000" stroke-opacity="0" stroke-width="3.83" fill="#326ce5"/><path d="M1449.82 416.92c-.6.06-1.08.18-1.56.42l-20.82 10.26c-1.14.54-1.92 1.5-2.16 2.76l-5.16 23.1c-.24 1.08-.06 2.16.54 3.12.06.12.12.18.24.3l14.4 18.48c.78 1.02 1.86 1.56 3.12 1.56h23.16c1.26 0 2.34-.54 3.12-1.56l14.4-18.48c.78-1.02 1.08-2.22.78-3.42l-5.16-23.1c-.24-1.26-1.02-2.22-2.16-2.76l-20.82-10.26c-.66-.3-1.26-.48-1.92-.42zm0 1.62c.66-.06 1.2.06 1.8.36l19.8 9.72c1.02.54 1.74 1.44 2.04 2.64l4.86 21.84c.24 1.2 0 2.28-.72 3.24l-13.68 17.52c-.72.96-1.74 1.5-2.94 1.5h-21.96c-1.2 0-2.22-.54-2.94-1.5l-13.68-17.52c-.06-.06-.12-.18-.18-.3-.6-.9-.78-1.86-.54-2.94l4.86-21.84c.3-1.2.96-2.1 2.04-2.64l19.8-9.72c.48-.24.9-.36 1.44-.42z" stroke="#000" stroke-opacity="0" stroke-width="3.83" fill="#fff"/><path d="M1447 467.96c0 1.78-.6 2.67-1.8 2.67-.78 0-1.3-.3-1.55-.9h-.02v2.82h-.8v-6.1c0-.5-.02-.86-.04-1.03h.8v.14c0 .08 0 .2.02.36l.02.32c.16-.3.35-.54.6-.68.24-.15.55-.23.95-.23.6 0 1.06.2 1.36.64.3.42.45 1.08.45 2zm-.85 0c0-.7-.1-1.2-.28-1.5-.2-.32-.5-.47-.9-.47-.32 0-.57.06-.76.2-.18.14-.32.37-.4.67-.1.3-.16.7-.16 1.17 0 .67.1 1.16.32 1.48.2.32.54.48 1 .48.42 0 .7-.15.9-.46.2-.3.3-.83.3-1.57zM1452.24 467.98c0 .9-.2 1.56-.57 2-.4.43-.94.65-1.67.65-.72 0-1.27-.23-1.64-.68-.37-.46-.55-1.12-.55-1.97 0-1.77.75-2.65 2.23-2.65.76 0 1.3.22 1.67.65.36.43.54 1.1.54 2zm-.87 0c0-.7-.1-1.22-.3-1.54-.2-.32-.55-.48-1.03-.48s-.83.16-1.05.5c-.22.3-.33.82-.33 1.52 0 .67.1 1.18.32 1.52.2.34.54.5 1 .5.5 0 .84-.16 1.05-.5.2-.32.32-.83.32-1.52zM1456.4 469.7c-.15.34-.36.58-.6.72-.26.14-.58.2-.95.2-.62 0-1.1-.2-1.38-.64-.3-.44-.44-1.1-.44-1.98 0-1.78.6-2.67 1.82-2.67.38 0 .7.07.94.2.24.16.45.38.6.7v-2.71h.82v5.96c0 .53 0 .9.03 1.06h-.8l-.02-.36v-.47zm-2.5-1.73c0 .72.1 1.23.27 1.54.2.32.48.48.9.48.46 0 .8-.17 1-.5.22-.34.33-.86.33-1.56 0-.68-.1-1.18-.32-1.5-.2-.3-.54-.46-1-.46-.42 0-.72.16-.9.48-.2.3-.28.82-.28 1.53z" stroke="#000" stroke-opacity="0" fill="#fff"/><path d="M1437.96 437.02l12.04-3.6 12.04 3.6-12.04 3.6zM1437.96 438.4v13.2l11.22 6.42.05-16.17zM1462.04 438.4v13.2l-11.22 6.42-.05-16.17z" stroke="#000" stroke-opacity="0" stroke-width="3.77" fill="#fff"/><path d="M1549.83 418.5c-.57.06-1.02.18-1.48.4l-19.72 9.72c-1.08.5-1.82 1.42-2.05 2.62l-4.9 21.88c-.2 1.02-.04 2.05.53 2.95.06.12.12.18.23.3l13.64 17.5c.74.96 1.77 1.47 2.96 1.47h21.94c1.2 0 2.22-.5 2.95-1.48l13.65-17.5c.73-.97 1.02-2.1.73-3.3l-4.88-21.82c-.23-1.2-.97-2.1-2.05-2.62l-19.72-9.72c-.63-.28-1.2-.45-1.82-.4z" stroke="#000" stroke-opacity="0" stroke-width="3.83" fill="#326ce5"/><path d="M1549.82 416.92c-.6.06-1.08.18-1.56.42l-20.82 10.26c-1.14.54-1.92 1.5-2.16 2.76l-5.16 23.1c-.24 1.08-.06 2.16.54 3.12.06.12.12.18.24.3l14.4 18.48c.78 1.02 1.86 1.56 3.12 1.56h23.16c1.26 0 2.34-.54 3.12-1.56l14.4-18.48c.78-1.02 1.08-2.22.78-3.42l-5.16-23.1c-.24-1.26-1.02-2.22-2.16-2.76l-20.82-10.26c-.66-.3-1.26-.48-1.92-.42zm0 1.62c.66-.06 1.2.06 1.8.36l19.8 9.72c1.02.54 1.74 1.44 2.04 2.64l4.86 21.84c.24 1.2 0 2.28-.72 3.24l-13.68 17.52c-.72.96-1.74 1.5-2.94 1.5h-21.96c-1.2 0-2.22-.54-2.94-1.5l-13.68-17.52c-.06-.06-.12-.18-.18-.3-.6-.9-.78-1.86-.54-2.94l4.86-21.84c.3-1.2.96-2.1 2.04-2.64l19.8-9.72c.48-.24.9-.36 1.44-.42z" stroke="#000" stroke-opacity="0" stroke-width="3.83" fill="#fff"/><path d="M1547 467.96c0 1.78-.6 2.67-1.8 2.67-.78 0-1.3-.3-1.55-.9h-.02v2.82h-.8v-6.1c0-.5-.02-.86-.04-1.03h.8v.14c0 .08 0 .2.02.36l.02.32c.16-.3.35-.54.6-.68.24-.15.55-.23.95-.23.6 0 1.06.2 1.36.64.3.42.45 1.08.45 2zm-.85 0c0-.7-.1-1.2-.28-1.5-.2-.32-.5-.47-.9-.47-.32 0-.57.06-.76.2-.18.14-.32.37-.4.67-.1.3-.16.7-.16 1.17 0 .67.1 1.16.32 1.48.2.32.54.48 1 .48.42 0 .7-.15.9-.46.2-.3.3-.83.3-1.57zM1552.24 467.98c0 .9-.2 1.56-.57 2-.4.43-.94.65-1.67.65-.72 0-1.27-.23-1.64-.68-.37-.46-.55-1.12-.55-1.97 0-1.77.75-2.65 2.23-2.65.76 0 1.3.22 1.67.65.36.43.54 1.1.54 2zm-.87 0c0-.7-.1-1.22-.3-1.54-.2-.32-.55-.48-1.03-.48s-.83.16-1.05.5c-.22.3-.33.82-.33 1.52 0 .67.1 1.18.32 1.52.2.34.54.5 1 .5.5 0 .84-.16 1.05-.5.2-.32.32-.83.32-1.52zM1556.4 469.7c-.15.34-.36.58-.6.72-.26.14-.58.2-.95.2-.62 0-1.1-.2-1.38-.64-.3-.44-.44-1.1-.44-1.98 0-1.78.6-2.67 1.82-2.67.38 0 .7.07.94.2.24.16.45.38.6.7v-2.71h.82v5.96c0 .53 0 .9.03 1.06h-.8l-.02-.36v-.47zm-2.5-1.73c0 .72.1 1.23.27 1.54.2.32.48.48.9.48.46 0 .8-.17 1-.5.22-.34.33-.86.33-1.56 0-.68-.1-1.18-.32-1.5-.2-.3-.54-.46-1-.46-.42 0-.72.16-.9.48-.2.3-.28.82-.28 1.53z" stroke="#000" stroke-opacity="0" fill="#fff"/><path d="M1537.96 437.02l12.04-3.6 12.04 3.6-12.04 3.6zM1537.96 438.4v13.2l11.22 6.42.05-16.17zM1562.04 438.4v13.2l-11.22 6.42-.05-16.17z" stroke="#000" stroke-opacity="0" stroke-width="3.77" fill="#fff"/><path d="M1449.83 541.58c-.57.06-1.02.17-1.48.4l-19.72 9.72c-1.08.5-1.82 1.42-2.05 2.6l-4.9 21.9c-.2 1.02-.04 2.04.53 2.95.06.12.12.17.23.3l13.64 17.5c.74.96 1.77 1.47 2.96 1.47h21.94c1.2 0 2.22-.5 2.95-1.48l13.65-17.5c.73-.97 1.02-2.1.73-3.3l-4.88-21.83c-.23-1.18-.97-2.1-2.05-2.6l-19.72-9.72c-.63-.28-1.2-.45-1.82-.4z" stroke="#000" stroke-opacity="0" stroke-width="3.83" fill="#326ce5"/><path d="M1449.82 540c-.6.06-1.08.18-1.56.42l-20.82 10.26c-1.14.54-1.92 1.5-2.16 2.76l-5.16 23.1c-.24 1.08-.06 2.16.54 3.12.06.12.12.18.24.3l14.4 18.48c.78 1.02 1.86 1.56 3.12 1.56h23.16c1.26 0 2.34-.54 3.12-1.56l14.4-18.48c.78-1.02 1.08-2.22.78-3.42l-5.16-23.1c-.24-1.26-1.02-2.22-2.16-2.76l-20.82-10.26c-.66-.3-1.26-.48-1.92-.42zm0 1.62c.66-.06 1.2.06 1.8.36l19.8 9.72c1.02.54 1.74 1.44 2.04 2.64l4.86 21.84c.24 1.2 0 2.28-.72 3.24l-13.68 17.52c-.72.96-1.74 1.5-2.94 1.5h-21.96c-1.2 0-2.22-.54-2.94-1.5l-13.68-17.52c-.06-.06-.12-.18-.18-.3-.6-.9-.78-1.86-.54-2.94l4.86-21.84c.3-1.2.96-2.1 2.04-2.64l19.8-9.72c.48-.24.9-.36 1.44-.42z" stroke="#000" stroke-opacity="0" stroke-width="3.83" fill="#fff"/><path d="M1447 591.03c0 1.8-.6 2.68-1.8 2.68-.78 0-1.3-.3-1.55-.88h-.02v2.8h-.8v-6.08c0-.52-.02-.87-.04-1.04h.8v.13c0 .08 0 .2.02.36l.02.32c.16-.3.35-.54.6-.7.24-.14.55-.2.95-.2.6 0 1.06.2 1.36.62.3.42.45 1.1.45 2zm-.85.02c0-.7-.1-1.22-.28-1.52-.2-.3-.5-.46-.9-.46-.32 0-.57.07-.76.2-.18.15-.32.37-.4.68-.1.3-.16.7-.16 1.16 0 .7.1 1.18.32 1.5.2.32.54.47 1 .47.42 0 .7-.15.9-.46.2-.3.3-.82.3-1.55zM1452.24 591.05c0 .9-.2 1.57-.57 2-.4.44-.94.66-1.67.66-.72 0-1.27-.22-1.64-.67-.37-.46-.55-1.12-.55-1.98 0-1.76.75-2.64 2.23-2.64.76 0 1.3.22 1.67.65.36.43.54 1.1.54 2zm-.87 0c0-.7-.1-1.22-.3-1.54-.2-.3-.55-.46-1.03-.46s-.83.16-1.05.5c-.22.3-.33.82-.33 1.5 0 .7.1 1.2.32 1.53.2.34.54.5 1 .5.5 0 .84-.15 1.05-.48.2-.34.32-.85.32-1.55zM1456.4 592.8c-.15.32-.36.55-.6.7-.26.14-.58.2-.95.2-.62 0-1.1-.2-1.38-.65-.3-.43-.44-1.1-.44-1.97 0-1.8.6-2.67 1.82-2.67.38 0 .7.08.94.22s.45.37.6.67V586.6h.82v5.96c0 .53 0 .88.03 1.06h-.8l-.02-.36v-.47zm-2.5-1.75c0 .72.1 1.23.27 1.53.2.32.48.47.9.47.46 0 .8-.17 1-.5.22-.33.33-.85.33-1.56 0-.68-.1-1.18-.32-1.5-.2-.3-.54-.47-1-.47-.42 0-.72.17-.9.5-.2.3-.28.8-.28 1.52z" stroke="#000" stroke-opacity="0" fill="#fff"/><path d="M1437.96 560.1l12.04-3.6 12.04 3.6-12.04 3.6zM1437.96 561.48v13.2l11.22 6.4.05-16.15zM1462.04 561.48v13.2l-11.22 6.4-.05-16.15z" stroke="#000" stroke-opacity="0" stroke-width="3.77" fill="#fff"/><path d="M1549.83 541.58c-.57.06-1.02.17-1.48.4l-19.72 9.72c-1.08.5-1.82 1.42-2.05 2.6l-4.9 21.9c-.2 1.02-.04 2.04.53 2.95.06.12.12.17.23.3l13.64 17.5c.74.96 1.77 1.47 2.96 1.47h21.94c1.2 0 2.22-.5 2.95-1.48l13.65-17.5c.73-.97 1.02-2.1.73-3.3l-4.88-21.83c-.23-1.18-.97-2.1-2.05-2.6l-19.72-9.72c-.63-.28-1.2-.45-1.82-.4z" stroke="#000" stroke-opacity="0" stroke-width="3.83" fill="#326ce5"/><path d="M1549.82 540c-.6.06-1.08.18-1.56.42l-20.82 10.26c-1.14.54-1.92 1.5-2.16 2.76l-5.16 23.1c-.24 1.08-.06 2.16.54 3.12.06.12.12.18.24.3l14.4 18.48c.78 1.02 1.86 1.56 3.12 1.56h23.16c1.26 0 2.34-.54 3.12-1.56l14.4-18.48c.78-1.02 1.08-2.22.78-3.42l-5.16-23.1c-.24-1.26-1.02-2.22-2.16-2.76l-20.82-10.26c-.66-.3-1.26-.48-1.92-.42zm0 1.62c.66-.06 1.2.06 1.8.36l19.8 9.72c1.02.54 1.74 1.44 2.04 2.64l4.86 21.84c.24 1.2 0 2.28-.72 3.24l-13.68 17.52c-.72.96-1.74 1.5-2.94 1.5h-21.96c-1.2 0-2.22-.54-2.94-1.5l-13.68-17.52c-.06-.06-.12-.18-.18-.3-.6-.9-.78-1.86-.54-2.94l4.86-21.84c.3-1.2.96-2.1 2.04-2.64l19.8-9.72c.48-.24.9-.36 1.44-.42z" stroke="#000" stroke-opacity="0" stroke-width="3.83" fill="#fff"/><path d="M1547 591.03c0 1.8-.6 2.68-1.8 2.68-.78 0-1.3-.3-1.55-.88h-.02v2.8h-.8v-6.08c0-.52-.02-.87-.04-1.04h.8v.13c0 .08 0 .2.02.36l.02.32c.16-.3.35-.54.6-.7.24-.14.55-.2.95-.2.6 0 1.06.2 1.36.62.3.42.45 1.1.45 2zm-.85.02c0-.7-.1-1.22-.28-1.52-.2-.3-.5-.46-.9-.46-.32 0-.57.07-.76.2-.18.15-.32.37-.4.68-.1.3-.16.7-.16 1.16 0 .7.1 1.18.32 1.5.2.32.54.47 1 .47.42 0 .7-.15.9-.46.2-.3.3-.82.3-1.55zM1552.24 591.05c0 .9-.2 1.57-.57 2-.4.44-.94.66-1.67.66-.72 0-1.27-.22-1.64-.67-.37-.46-.55-1.12-.55-1.98 0-1.76.75-2.64 2.23-2.64.76 0 1.3.22 1.67.65.36.43.54 1.1.54 2zm-.87 0c0-.7-.1-1.22-.3-1.54-.2-.3-.55-.46-1.03-.46s-.83.16-1.05.5c-.22.3-.33.82-.33 1.5 0 .7.1 1.2.32 1.53.2.34.54.5 1 .5.5 0 .84-.15 1.05-.48.2-.34.32-.85.32-1.55zM1556.4 592.8c-.15.32-.36.55-.6.7-.26.14-.58.2-.95.2-.62 0-1.1-.2-1.38-.65-.3-.43-.44-1.1-.44-1.97 0-1.8.6-2.67 1.82-2.67.38 0 .7.08.94.22s.45.37.6.67V586.6h.82v5.96c0 .53 0 .88.03 1.06h-.8l-.02-.36v-.47zm-2.5-1.75c0 .72.1 1.23.27 1.53.2.32.48.47.9.47.46 0 .8-.17 1-.5.22-.33.33-.85.33-1.56 0-.68-.1-1.18-.32-1.5-.2-.3-.54-.47-1-.47-.42 0-.72.17-.9.5-.2.3-.28.8-.28 1.52z" stroke="#000" stroke-opacity="0" fill="#fff"/><path d="M1537.96 560.1l12.04-3.6 12.04 3.6-12.04 3.6zM1537.96 561.48v13.2l11.22 6.4.05-16.15zM1562.04 561.48v13.2l-11.22 6.4-.05-16.15z" stroke="#000" stroke-opacity="0" stroke-width="3.77" fill="#fff"/><path d="M1449.83 641.58c-.57.06-1.02.17-1.48.4l-19.72 9.72c-1.08.5-1.82 1.42-2.05 2.6l-4.9 21.9c-.2 1.02-.04 2.04.53 2.95.06.12.12.17.23.3l13.64 17.5c.74.96 1.77 1.47 2.96 1.47h21.94c1.2 0 2.22-.5 2.95-1.48l13.65-17.5c.73-.97 1.02-2.1.73-3.3l-4.88-21.83c-.23-1.18-.97-2.1-2.05-2.6l-19.72-9.72c-.63-.28-1.2-.45-1.82-.4z" stroke="#000" stroke-opacity="0" stroke-width="3.83" fill="#326ce5"/><path d="M1449.82 640c-.6.06-1.08.18-1.56.42l-20.82 10.26c-1.14.54-1.92 1.5-2.16 2.76l-5.16 23.1c-.24 1.08-.06 2.16.54 3.12.06.12.12.18.24.3l14.4 18.48c.78 1.02 1.86 1.56 3.12 1.56h23.16c1.26 0 2.34-.54 3.12-1.56l14.4-18.48c.78-1.02 1.08-2.22.78-3.42l-5.16-23.1c-.24-1.26-1.02-2.22-2.16-2.76l-20.82-10.26c-.66-.3-1.26-.48-1.92-.42zm0 1.62c.66-.06 1.2.06 1.8.36l19.8 9.72c1.02.54 1.74 1.44 2.04 2.64l4.86 21.84c.24 1.2 0 2.28-.72 3.24l-13.68 17.52c-.72.96-1.74 1.5-2.94 1.5h-21.96c-1.2 0-2.22-.54-2.94-1.5l-13.68-17.52c-.06-.06-.12-.18-.18-.3-.6-.9-.78-1.86-.54-2.94l4.86-21.84c.3-1.2.96-2.1 2.04-2.64l19.8-9.72c.48-.24.9-.36 1.44-.42z" stroke="#000" stroke-opacity="0" stroke-width="3.83" fill="#fff"/><path d="M1447 691.03c0 1.8-.6 2.68-1.8 2.68-.78 0-1.3-.3-1.55-.88h-.02v2.8h-.8v-6.08c0-.52-.02-.87-.04-1.04h.8v.13c0 .08 0 .2.02.36l.02.32c.16-.3.35-.54.6-.7.24-.14.55-.2.95-.2.6 0 1.06.2 1.36.62.3.42.45 1.1.45 2zm-.85.02c0-.7-.1-1.22-.28-1.52-.2-.3-.5-.46-.9-.46-.32 0-.57.07-.76.2-.18.15-.32.37-.4.68-.1.3-.16.7-.16 1.16 0 .7.1 1.18.32 1.5.2.32.54.47 1 .47.42 0 .7-.15.9-.46.2-.3.3-.82.3-1.55zM1452.24 691.05c0 .9-.2 1.57-.57 2-.4.44-.94.66-1.67.66-.72 0-1.27-.22-1.64-.67-.37-.46-.55-1.12-.55-1.98 0-1.76.75-2.64 2.23-2.64.76 0 1.3.22 1.67.65.36.43.54 1.1.54 2zm-.87 0c0-.7-.1-1.22-.3-1.54-.2-.3-.55-.46-1.03-.46s-.83.16-1.05.5c-.22.3-.33.82-.33 1.5 0 .7.1 1.2.32 1.53.2.34.54.5 1 .5.5 0 .84-.15 1.05-.48.2-.34.32-.85.32-1.55zM1456.4 692.8c-.15.32-.36.55-.6.7-.26.14-.58.2-.95.2-.62 0-1.1-.2-1.38-.65-.3-.43-.44-1.1-.44-1.97 0-1.8.6-2.67 1.82-2.67.38 0 .7.08.94.22s.45.37.6.67V686.6h.82v5.96c0 .53 0 .88.03 1.06h-.8l-.02-.36v-.47zm-2.5-1.75c0 .72.1 1.23.27 1.53.2.32.48.47.9.47.46 0 .8-.17 1-.5.22-.33.33-.85.33-1.56 0-.68-.1-1.18-.32-1.5-.2-.3-.54-.47-1-.47-.42 0-.72.17-.9.5-.2.3-.28.8-.28 1.52z" stroke="#000" stroke-opacity="0" fill="#fff"/><path d="M1437.96 660.1l12.04-3.6 12.04 3.6-12.04 3.6zM1437.96 661.48v13.2l11.22 6.4.05-16.15zM1462.04 661.48v13.2l-11.22 6.4-.05-16.15z" stroke="#000" stroke-opacity="0" stroke-width="3.77" fill="#fff"/><path d="M1549.83 641.58c-.57.06-1.02.17-1.48.4l-19.72 9.72c-1.08.5-1.82 1.42-2.05 2.6l-4.9 21.9c-.2 1.02-.04 2.04.53 2.95.06.12.12.17.23.3l13.64 17.5c.74.96 1.77 1.47 2.96 1.47h21.94c1.2 0 2.22-.5 2.95-1.48l13.65-17.5c.73-.97 1.02-2.1.73-3.3l-4.88-21.83c-.23-1.18-.97-2.1-2.05-2.6l-19.72-9.72c-.63-.28-1.2-.45-1.82-.4z" stroke="#000" stroke-opacity="0" stroke-width="3.83" fill="#326ce5"/><path d="M1549.82 640c-.6.06-1.08.18-1.56.42l-20.82 10.26c-1.14.54-1.92 1.5-2.16 2.76l-5.16 23.1c-.24 1.08-.06 2.16.54 3.12.06.12.12.18.24.3l14.4 18.48c.78 1.02 1.86 1.56 3.12 1.56h23.16c1.26 0 2.34-.54 3.12-1.56l14.4-18.48c.78-1.02 1.08-2.22.78-3.42l-5.16-23.1c-.24-1.26-1.02-2.22-2.16-2.76l-20.82-10.26c-.66-.3-1.26-.48-1.92-.42zm0 1.62c.66-.06 1.2.06 1.8.36l19.8 9.72c1.02.54 1.74 1.44 2.04 2.64l4.86 21.84c.24 1.2 0 2.28-.72 3.24l-13.68 17.52c-.72.96-1.74 1.5-2.94 1.5h-21.96c-1.2 0-2.22-.54-2.94-1.5l-13.68-17.52c-.06-.06-.12-.18-.18-.3-.6-.9-.78-1.86-.54-2.94l4.86-21.84c.3-1.2.96-2.1 2.04-2.64l19.8-9.72c.48-.24.9-.36 1.44-.42z" stroke="#000" stroke-opacity="0" stroke-width="3.83" fill="#fff"/><path d="M1547 691.03c0 1.8-.6 2.68-1.8 2.68-.78 0-1.3-.3-1.55-.88h-.02v2.8h-.8v-6.08c0-.52-.02-.87-.04-1.04h.8v.13c0 .08 0 .2.02.36l.02.32c.16-.3.35-.54.6-.7.24-.14.55-.2.95-.2.6 0 1.06.2 1.36.62.3.42.45 1.1.45 2zm-.85.02c0-.7-.1-1.22-.28-1.52-.2-.3-.5-.46-.9-.46-.32 0-.57.07-.76.2-.18.15-.32.37-.4.68-.1.3-.16.7-.16 1.16 0 .7.1 1.18.32 1.5.2.32.54.47 1 .47.42 0 .7-.15.9-.46.2-.3.3-.82.3-1.55zM1552.24 691.05c0 .9-.2 1.57-.57 2-.4.44-.94.66-1.67.66-.72 0-1.27-.22-1.64-.67-.37-.46-.55-1.12-.55-1.98 0-1.76.75-2.64 2.23-2.64.76 0 1.3.22 1.67.65.36.43.54 1.1.54 2zm-.87 0c0-.7-.1-1.22-.3-1.54-.2-.3-.55-.46-1.03-.46s-.83.16-1.05.5c-.22.3-.33.82-.33 1.5 0 .7.1 1.2.32 1.53.2.34.54.5 1 .5.5 0 .84-.15 1.05-.48.2-.34.32-.85.32-1.55zM1556.4 692.8c-.15.32-.36.55-.6.7-.26.14-.58.2-.95.2-.62 0-1.1-.2-1.38-.65-.3-.43-.44-1.1-.44-1.97 0-1.8.6-2.67 1.82-2.67.38 0 .7.08.94.22s.45.37.6.67V686.6h.82v5.96c0 .53 0 .88.03 1.06h-.8l-.02-.36v-.47zm-2.5-1.75c0 .72.1 1.23.27 1.53.2.32.48.47.9.47.46 0 .8-.17 1-.5.22-.33.33-.85.33-1.56 0-.68-.1-1.18-.32-1.5-.2-.3-.54-.47-1-.47-.42 0-.72.17-.9.5-.2.3-.28.8-.28 1.52z" stroke="#000" stroke-opacity="0" fill="#fff"/><path d="M1537.96 660.1l12.04-3.6 12.04 3.6-12.04 3.6zM1537.96 661.48v13.2l11.22 6.4.05-16.15zM1562.04 661.48v13.2l-11.22 6.4-.05-16.15z" stroke="#000" stroke-opacity="0" stroke-width="3.77" fill="#fff"/><path d="M614.87 413.85H728.7c.44 0 .78.34.78.77 0 .42.34.76.77.76h96.34" stroke="#5e5e5e" stroke-width="2" fill="none"/><path d="M614.9 414.85h-.8l-.46-2h1.25z" fill="#5e5e5e"/><path d="M841.86 415.38l-14.27 4.64v-9.27z" stroke="#5e5e5e" stroke-width="2" fill="#5e5e5e"/><path d="M567.23 363.64v-136.1c0-3.32 2.7-6 6-6H828.7" stroke="#5e5e5e" stroke-width="2" fill="none"/><path d="M568.23 364.72l-1.3-.1-.7.12v-1.13h2z" fill="#5e5e5e"/><path d="M843.95 221.54l-14.26 4.63v-9.27z" stroke="#5e5e5e" stroke-width="2" fill="#5e5e5e"/><path d="M567.23 464.08v139.95c0 3.3 2.7 6 6 6H826.8" stroke="#5e5e5e" stroke-width="2" fill="none"/><path d="M568.23 464.1h-2v-1.02h2z" fill="#5e5e5e"/><path d="M842.06 610.03l-14.27 4.63v-9.27z" stroke="#5e5e5e" stroke-width="2" fill="#5e5e5e"/><path d="M1300 86c0-3.3 2.7-6 6-6h388c3.3 0 6 2.7 6 6v188c0 3.3-2.7 6-6 6h-388c-3.3 0-6-2.7-6-6z" fill="#fff" fill-opacity=".57"/><path d="M1324.2 80h12.1m12.14 0h12.12m12.13 0h12.1m12.14 0h12.12m12.13 0h12.1m12.14 0h12.12m12.13 0h12.1m12.14 0h12.12m12.13 0h12.1m12.14 0h12.12m12.13 0h12.1m12.14 0h12.12m12.13 0h12.1m12.14 0h12.12m12.13 0h12.1m12.14 0h6.06l3.03.82 2.15 2.15.82 3.03v5.87m0 11.75v11.75m0 11.75v11.75m0 11.75v11.75m0 11.75v11.75m0 11.75v11.75m0 11.75v11.75m0 11.75v11.75m0 11.75V274l-.82 3.03-2.15 2.15-3.03.82h-6.06m-12.13 0h-12.1m-12.14 0h-12.12m-12.13 0h-12.1m-12.14 0h-12.12m-12.13 0h-12.1m-12.14 0h-12.12m-12.13 0h-12.1m-12.14 0h-12.12m-12.13 0h-12.1m-12.14 0h-12.12m-12.13 0h-12.1m-12.14 0h-12.12m-12.13 0h-12.1m-12.14 0h-12.12m-12.13 0h-12.1m-12.14 0H1306l-3.03-.82-2.15-2.15-.82-3.03v-5.87m0-11.75v-11.75m0-11.75v-11.75m0-11.75v-11.75m0-11.75v-11.75m0-11.75v-11.75m0-11.75v-11.75m0-11.75v-11.75m0-11.75V86l.82-3.03 2.15-2.15L1306 80h6.06" stroke="#5a6c86" stroke-width="3" fill="none"/><path d="M1300 302.92c0-3.3 2.7-6 6-6h388c3.3 0 6 2.7 6 6v188c0 3.32-2.7 6-6 6h-388c-3.3 0-6-2.68-6-6z" fill="#c7e8ac" fill-opacity=".57"/><path d="M1324.2 296.92h12.1m12.14 0h12.12m12.13 0h12.1m12.14 0h12.12m12.13 0h12.1m12.14 0h12.12m12.13 0h12.1m12.14 0h12.12m12.13 0h12.1m12.14 0h12.12m12.13 0h12.1m12.14 0h12.12m12.13 0h12.1m12.14 0h12.12m12.13 0h12.1m12.14 0h6.06l3.03.82 2.15 2.15.82 3.02v5.88m0 11.75v11.75m0 11.75v11.75m0 11.75v11.75m0 11.75v11.75m0 11.75v11.75m0 11.75v11.75m0 11.75v11.75m0 11.75v5.87l-.82 3.03-2.15 2.15-3.03.82h-6.06m-12.13 0h-12.1m-12.14 0h-12.12m-12.13 0h-12.1m-12.14 0h-12.12m-12.13 0h-12.1m-12.14 0h-12.12m-12.13 0h-12.1m-12.14 0h-12.12m-12.13 0h-12.1m-12.14 0h-12.12m-12.13 0h-12.1m-12.14 0h-12.12m-12.13 0h-12.1m-12.14 0h-12.12m-12.13 0h-12.1m-12.14 0H1306l-3.03-.82-2.15-2.15-.82-3.03v-5.87m0-11.75v-11.75m0-11.75v-11.75m0-11.75v-11.75m0-11.75v-11.75m0-11.75v-11.75m0-11.75v-11.75m0-11.75v-11.75m0-11.75v-5.88l.82-3.03 2.15-2.16 3.03-.82h6.06" stroke="#5a6c86" stroke-width="3" fill="none"/><path d="M1300 526c0-3.3 2.7-6 6-6h388c3.3 0 6 2.7 6 6v188c0 3.3-2.7 6-6 6h-388c-3.3 0-6-2.7-6-6z" fill="#83bbe5" fill-opacity=".57"/><path d="M1324.2 520h12.1m12.14 0h12.12m12.13 0h12.1m12.14 0h12.12m12.13 0h12.1m12.14 0h12.12m12.13 0h12.1m12.14 0h12.12m12.13 0h12.1m12.14 0h12.12m12.13 0h12.1m12.14 0h12.12m12.13 0h12.1m12.14 0h12.12m12.13 0h12.1m12.14 0h6.06l3.03.82 2.15 2.15.82 3.03v5.87m0 11.75v11.75m0 11.75v11.75m0 11.75v11.75m0 11.75v11.75m0 11.75v11.75m0 11.75v11.75m0 11.75v11.75m0 11.75V714l-.82 3.03-2.15 2.15-3.03.82h-6.06m-12.13 0h-12.1m-12.14 0h-12.12m-12.13 0h-12.1m-12.14 0h-12.12m-12.13 0h-12.1m-12.14 0h-12.12m-12.13 0h-12.1m-12.14 0h-12.12m-12.13 0h-12.1m-12.14 0h-12.12m-12.13 0h-12.1m-12.14 0h-12.12m-12.13 0h-12.1m-12.14 0h-12.12m-12.13 0h-12.1m-12.14 0H1306l-3.03-.82-2.15-2.15-.82-3.03v-5.87m0-11.75v-11.75m0-11.75v-11.75m0-11.75v-11.75m0-11.75v-11.75m0-11.75v-11.75m0-11.75v-11.75m0-11.75v-11.75m0-11.75V526l.82-3.03 2.15-2.15 3.03-.82h6.06" stroke="#5a6c86" stroke-width="3" fill="none"/><path d="M1739.77 422.1c-.76.1-1.36.24-1.97.54l-26.3 12.96c-1.44.68-2.42 1.9-2.72 3.5l-6.52 29.16c-.3 1.37-.08 2.73.68 3.94.08.15.15.23.3.38l18.2 23.34c.98 1.3 2.34 1.97 3.93 1.97h29.26c1.6 0 2.95-.7 3.94-1.98l18.18-23.34c1-1.3 1.37-2.8 1-4.4l-6.53-29.1c-.3-1.6-1.3-2.8-2.73-3.48l-26.3-12.96c-.84-.38-1.6-.6-2.43-.53z" stroke="#000" stroke-opacity="0" stroke-width="3.83" fill="#326ce5"/><path d="M1739.76 420c-.8.08-1.44.24-2.08.56l-27.76 13.68c-1.52.72-2.56 2-2.88 3.68l-6.88 30.8c-.32 1.44-.08 2.88.72 4.16.08.16.16.24.32.4l19.2 24.64c1.04 1.36 2.48 2.08 4.16 2.08h30.88c1.68 0 3.12-.72 4.16-2.08l19.2-24.64c1.04-1.36 1.44-2.96 1.04-4.56l-6.88-30.8c-.32-1.68-1.36-2.96-2.88-3.68l-27.76-13.68c-.88-.4-1.68-.64-2.56-.56zm0 2.16c.88-.08 1.6.08 2.4.48l26.4 12.96c1.36.72 2.32 1.92 2.72 3.52l6.48 29.12c.32 1.6 0 3.04-.96 4.32l-18.24 23.36c-.96 1.28-2.32 2-3.92 2h-29.28c-1.6 0-2.96-.72-3.92-2l-18.24-23.36c-.08-.08-.16-.24-.24-.4-.8-1.2-1.04-2.48-.72-3.92l6.48-29.12c.4-1.6 1.28-2.8 2.72-3.52l26.4-12.96c.64-.32 1.2-.48 1.92-.56z" stroke="#000" stroke-opacity="0" stroke-width="3.83" fill="#fff"/><path d="M1731.2 440.35v3.4h2.33v-2.2h4.85v-2.42h-6c-.97 0-1.2.33-1.2 1.22zm11.88 1.2h9.38v-2.42h-9.38zm14.07 0h2.98v4.2h2.34v-5.4c0-.96-.5-1.2-1.2-1.22h-4.12zm-25.96 8.26v8.47h2.33v-9.67h-2.34zm28.93 2v8.48h2.34v-9.7h-2.34zm-26 10.7h9.38v-2.43h-9.37zm19.43 0h4.03v-2.43h-4.04z" stroke="#000" stroke-opacity="0" stroke-width="3.77" fill="#fff"/><path d="M1724.36 446.8v4.4h2.35V448h3.92v-2.42h-5.07c-.97 0-1.2.33-1.2 1.22zm10.98 1.2h9.35v-2.42h-9.36zm14.05 0h3.9v3.24h2.34v-4.44c0-.75-.3-1.24-1.15-1.22h-5.1zm-25.04 9.24v8.46h2.35v-9.67h-2.34zm28.94.05v8.45h2.34v-9.67h-2.34zm-25.06 11.65h9.38v-2.4h-9.38zm14.08 0h9.38v-2.4h-9.38z" stroke="#000" stroke-opacity="0" stroke-width="3.77" fill="#fff"/><path d="M1717.53 474.22v-22.2h29.95c.94 0 1.34.8 1.34 1.4l-.03 20.75c-.04.8-.67 1.24-1.3 1.2h-28.78c-.53 0-1.22-.43-1.2-1.15z" stroke="#000" stroke-opacity="0" stroke-width="3.77" fill="#fff"/><path d="M1736.07 491.12v-5.22c0-.48-.02-1-.04-1.6h1.04l.05 1.4h.02c.17-.58.38-.98.6-1.2.23-.2.56-.32.97-.32.16 0 .3.02.46.06v1.05c-.15-.06-.34-.08-.6-.08-.45 0-.8.2-1.03.6-.24.42-.37 1-.37 1.75v3.55zM1745.18 489.24c0 .64-.23 1.14-.7 1.5-.48.33-1.13.5-1.98.5-.82 0-1.46-.13-1.9-.4-.45-.3-.74-.72-.87-1.32l.97-.2c.1.37.3.64.57.82.3.17.7.25 1.23.25.56 0 .96-.1 1.22-.28.26-.17.4-.44.4-.8 0-.26-.1-.48-.27-.65-.18-.16-.47-.3-.87-.4l-.8-.23c-.62-.17-1.07-.33-1.34-.5-.27-.15-.48-.35-.62-.58-.16-.23-.23-.52-.23-.85 0-.6.2-1.08.63-1.4.43-.34 1.06-.5 1.88-.5.74 0 1.32.14 1.75.4.43.26.7.7.82 1.27l-1 .13c-.06-.3-.22-.54-.5-.7-.25-.16-.6-.24-1.06-.24-.48 0-.85.08-1.1.23-.22.15-.34.38-.34.7 0 .2.05.35.14.48.1.12.24.23.44.32.2.1.6.2 1.2.36.6.15 1 .3 1.27.42.26.13.47.27.6.43.16.16.28.34.36.55.08.2.12.43.12.7z" stroke="#000" stroke-opacity="0" fill="#fff"/><path d="M1736.07 491.15v-5.23c0-.48-.02-1-.04-1.6h1.04l.05 1.4h.02c.17-.57.38-.98.6-1.2.23-.2.56-.3.97-.3.16 0 .3 0 .46.05v1.04c-.15-.03-.34-.05-.6-.05-.45 0-.8.2-1.03.6-.24.4-.37 1-.37 1.75v3.55zM1745.18 489.27c0 .64-.23 1.13-.7 1.48-.48.35-1.13.53-1.98.53-.82 0-1.46-.14-1.9-.42-.45-.28-.74-.72-.87-1.3l.97-.2c.1.36.3.63.57.8.3.17.7.26 1.23.26.56 0 .96-.1 1.22-.27.26-.18.4-.45.4-.8 0-.27-.1-.48-.27-.65-.18-.17-.47-.3-.87-.4l-.8-.23c-.62-.17-1.07-.33-1.34-.5-.27-.16-.48-.35-.62-.6-.16-.2-.23-.5-.23-.83 0-.62.2-1.1.63-1.42.43-.33 1.06-.5 1.88-.5.74 0 1.32.14 1.75.4.43.27.7.7.82 1.28l-1 .12c-.06-.3-.22-.53-.5-.7-.25-.15-.6-.23-1.06-.23-.48 0-.85.07-1.1.22-.22.16-.34.4-.34.7 0 .2.05.36.14.48.1.12.24.24.44.32.2.1.6.2 1.2.37.6.14 1 .28 1.27.4.26.14.47.28.6.43.16.16.28.34.36.55.08.2.12.43.12.7z" stroke="#000" stroke-opacity="0" fill="#fff"/><path d="M1739.77 642.1c-.76.1-1.36.24-1.97.54l-26.3 12.96c-1.44.68-2.42 1.9-2.72 3.5l-6.52 29.16c-.3 1.37-.08 2.73.68 3.94.08.15.15.23.3.38l18.2 23.34c.98 1.3 2.34 1.97 3.93 1.97h29.26c1.6 0 2.95-.7 3.94-1.98l18.18-23.34c1-1.3 1.37-2.8 1-4.4l-6.53-29.1c-.3-1.6-1.3-2.8-2.73-3.48l-26.3-12.96c-.84-.38-1.6-.6-2.43-.53z" stroke="#000" stroke-opacity="0" stroke-width="3.83" fill="#326ce5"/><path d="M1739.76 640c-.8.08-1.44.24-2.08.56l-27.76 13.68c-1.52.72-2.56 2-2.88 3.68l-6.88 30.8c-.32 1.44-.08 2.88.72 4.16.08.16.16.24.32.4l19.2 24.64c1.04 1.36 2.48 2.08 4.16 2.08h30.88c1.68 0 3.12-.72 4.16-2.08l19.2-24.64c1.04-1.36 1.44-2.96 1.04-4.56l-6.88-30.8c-.32-1.68-1.36-2.96-2.88-3.68l-27.76-13.68c-.88-.4-1.68-.64-2.56-.56zm0 2.16c.88-.08 1.6.08 2.4.48l26.4 12.96c1.36.72 2.32 1.92 2.72 3.52l6.48 29.12c.32 1.6 0 3.04-.96 4.32l-18.24 23.36c-.96 1.28-2.32 2-3.92 2h-29.28c-1.6 0-2.96-.72-3.92-2l-18.24-23.36c-.08-.08-.16-.24-.24-.4-.8-1.2-1.04-2.48-.72-3.92l6.48-29.12c.4-1.6 1.28-2.8 2.72-3.52l26.4-12.96c.64-.32 1.2-.48 1.92-.56z" stroke="#000" stroke-opacity="0" stroke-width="3.83" fill="#fff"/><path d="M1731.2 660.35v3.4h2.33v-2.2h4.85v-2.42h-6c-.97 0-1.2.33-1.2 1.22zm11.88 1.2h9.38v-2.42h-9.38zm14.07 0h2.98v4.2h2.34v-5.4c0-.96-.5-1.2-1.2-1.22h-4.12zm-25.96 8.26v8.47h2.33v-9.67h-2.34zm28.93 2v8.48h2.34v-9.7h-2.34zm-26 10.7h9.38v-2.43h-9.37zm19.43 0h4.03v-2.43h-4.04z" stroke="#000" stroke-opacity="0" stroke-width="3.77" fill="#fff"/><path d="M1724.36 666.8v4.4h2.35V668h3.92v-2.42h-5.07c-.97 0-1.2.33-1.2 1.22zm10.98 1.2h9.35v-2.42h-9.36zm14.05 0h3.9v3.24h2.34v-4.44c0-.75-.3-1.24-1.15-1.22h-5.1zm-25.04 9.24v8.46h2.35v-9.67h-2.34zm28.94.05v8.45h2.34v-9.67h-2.34zm-25.06 11.65h9.38v-2.4h-9.38zm14.08 0h9.38v-2.4h-9.38z" stroke="#000" stroke-opacity="0" stroke-width="3.77" fill="#fff"/><path d="M1717.53 694.22v-22.2h29.95c.94 0 1.34.8 1.34 1.4l-.03 20.75c-.04.8-.67 1.24-1.3 1.2h-28.78c-.53 0-1.22-.43-1.2-1.15z" stroke="#000" stroke-opacity="0" stroke-width="3.77" fill="#fff"/><path d="M1736.07 711.12v-5.22c0-.48-.02-1-.04-1.6h1.04l.05 1.4h.02c.17-.58.38-.98.6-1.2.23-.2.56-.32.97-.32.16 0 .3.02.46.06v1.05c-.15-.06-.34-.08-.6-.08-.45 0-.8.2-1.03.6-.24.42-.37 1-.37 1.75v3.55zM1745.18 709.24c0 .64-.23 1.14-.7 1.5-.48.33-1.13.5-1.98.5-.82 0-1.46-.13-1.9-.4-.45-.3-.74-.72-.87-1.32l.97-.2c.1.37.3.64.57.82.3.17.7.25 1.23.25.56 0 .96-.1 1.22-.28.26-.17.4-.44.4-.8 0-.26-.1-.48-.27-.65-.18-.16-.47-.3-.87-.4l-.8-.23c-.62-.17-1.07-.33-1.34-.5-.27-.15-.48-.35-.62-.58-.16-.23-.23-.52-.23-.85 0-.6.2-1.08.63-1.4.43-.34 1.06-.5 1.88-.5.74 0 1.32.14 1.75.4.43.26.7.7.82 1.27l-1 .13c-.06-.3-.22-.54-.5-.7-.25-.16-.6-.24-1.06-.24-.48 0-.85.08-1.1.23-.22.15-.34.38-.34.7 0 .2.05.35.14.48.1.12.24.23.44.32.2.1.6.2 1.2.36.6.15 1 .3 1.27.42.26.13.47.27.6.43.16.16.28.34.36.55.08.2.12.43.12.7z" stroke="#000" stroke-opacity="0" fill="#fff"/><path d="M1736.07 711.15v-5.23c0-.48-.02-1-.04-1.6h1.04l.05 1.4h.02c.17-.57.38-.98.6-1.2.23-.2.56-.3.97-.3.16 0 .3 0 .46.05v1.04c-.15-.03-.34-.05-.6-.05-.45 0-.8.2-1.03.6-.24.4-.37 1-.37 1.75v3.55zM1745.18 709.27c0 .64-.23 1.13-.7 1.48-.48.35-1.13.53-1.98.53-.82 0-1.46-.14-1.9-.42-.45-.28-.74-.72-.87-1.3l.97-.2c.1.36.3.63.57.8.3.17.7.26 1.23.26.56 0 .96-.1 1.22-.27.26-.18.4-.45.4-.8 0-.27-.1-.48-.27-.65-.18-.17-.47-.3-.87-.4l-.8-.23c-.62-.17-1.07-.33-1.34-.5-.27-.16-.48-.35-.62-.6-.16-.2-.23-.5-.23-.83 0-.62.2-1.1.63-1.42.43-.33 1.06-.5 1.88-.5.74 0 1.32.14 1.75.4.43.27.7.7.82 1.28l-1 .12c-.06-.3-.22-.53-.5-.7-.25-.15-.6-.23-1.06-.23-.48 0-.85.07-1.1.22-.22.16-.34.4-.34.7 0 .2.05.36.14.48.1.12.24.24.44.32.2.1.6.2 1.2.37.6.14 1 .28 1.27.4.26.14.47.28.6.43.16.16.28.34.36.55.08.2.12.43.12.7z" stroke="#000" stroke-opacity="0" fill="#fff"/><path d="M926.9 221.54h179.3c3.3 0 6-2.7 6-6V186c0-3.3 2.7-6 6-6H1280" stroke="#5e5e5e" stroke-width="2" fill="none"/><path d="M926.93 222.54h-.8l-.45-2h1.25z" fill="#5e5e5e"/><path d="M1295.26 180l-14.26 4.64v-9.28z" stroke="#5e5e5e" stroke-width="2" fill="#5e5e5e"/><path d="M926.9 404.62H1280" stroke="#5e5e5e" stroke-width="2" fill="none"/><path d="M926.93 405.62h-.8l-.45-2h1.25z" fill="#5e5e5e"/><path d="M1295.26 404.62l-14.26 4.63v-9.27z" stroke="#5e5e5e" stroke-width="2" fill="#5e5e5e"/><path d="M926.9 601.54h179.3c3.3 0 6 2.68 6 6V614c0 3.3 2.7 6 6 6H1280" stroke="#5e5e5e" stroke-width="2" fill="none"/><path d="M926.93 602.54h-.8l-.45-2h1.25z" fill="#5e5e5e"/><path d="M1295.26 620l-14.26 4.64v-9.28z" stroke="#5e5e5e" stroke-width="2" fill="#5e5e5e"/><path d="M519.6 413.85H404c-3.3 0-6-2.7-6-6v-75.5" stroke="#5e5e5e" stroke-width="2" fill="none"/><path d="M520.37 414.85h-.8v-2h1.25z" fill="#5e5e5e"/><path d="M398 317.08l4.64 14.27h-9.28z" stroke="#5e5e5e" stroke-width="2" fill="#5e5e5e"/><path d="M519.6 413.85H496c-3.3 0-6 2.68-6 6V594c0 3.3-2.7 6-6 6H206c-3.3 0-6-2.7-6-6v-15.5" stroke="#5e5e5e" stroke-width="2" fill="none"/><path d="M520.37 414.85h-.8v-2h1.25z" fill="#5e5e5e"/><path d="M200 563.24l4.64 14.26h-9.28z" stroke="#5e5e5e" stroke-width="2" fill="#5e5e5e"/><path d="M519.6 413.85h-33c-3.32 0-6 2.68-6 6v51.07c0 3.32-2.7 6-6 6H186c-3.3 0-6-2.68-6-6v-15.5" stroke="#5e5e5e" stroke-width="2" fill="none"/><path d="M520.37 414.85h-.8v-2h1.25z" fill="#5e5e5e"/><path d="M180 440.16l4.64 14.26h-9.28z" stroke="#5e5e5e" stroke-width="2" fill="#5e5e5e"/><path d="M60 382.92c0-3.3 2.7-6 6-6h228c3.3 0 6 2.7 6 6v48c0 3.32-2.7 6-6 6H66c-3.3 0-6-2.68-6-6z" stroke="#000" stroke-opacity="0" stroke-width="3" fill="#fff" fill-opacity="0"/><use xlink:href="#e" transform="matrix(1,0,0,1,65,381.9230769230769) translate(88.32899305555556 30.2734375)"/><path d="M278 259.85c0-3.32 2.7-6 6-6h228c3.3 0 6 2.68 6 6v48c0 3.3-2.7 6-6 6H284c-3.3 0-6-2.7-6-6z" stroke="#000" stroke-opacity="0" stroke-width="3" fill="#fff" fill-opacity="0"/><use xlink:href="#f" transform="matrix(1,0,0,1,283,258.8461538461538) translate(81.66124131944444 30.2734375)"/><path d="M80 506c0-3.3 2.7-6 6-6h228c3.3 0 6 2.7 6 6v48c0 3.3-2.7 6-6 6H86c-3.3 0-6-2.7-6-6z" stroke="#000" stroke-opacity="0" stroke-width="3" fill="#fff" fill-opacity="0"/><use xlink:href="#g" transform="matrix(1,0,0,1,85,505) translate(74.99348958333333 30.2734375)"/><path d="M100 86c0-3.3 2.7-6 6-6h406c3.3 0 6 2.7 6 6v628c0 3.3-2.7 6-6 6H106c-3.3 0-6-2.7-6-6z" fill="#fff" fill-opacity="0"/><path d="M123.9 80h11.95m11.94 0h11.94m11.94 0h11.94m11.94 0h11.94m11.94 0h11.94m11.94 0h11.94m11.95 0h11.95m11.94 0h11.93m11.94 0h11.94m11.95 0h11.94m11.94 0h11.94m11.94 0h11.94m11.94 0h11.94m11.94 0h11.94m11.94 0h11.95m11.95 0h11.94m11.93 0H512l3.03.82 2.15 2.15L518 86v6.04m0 12.08v12.07m0 12.07v12.08m0 12.07v12.08m0 12.08v12.07m0 12.08v12.08m0 12.08v12.08m0 12.08v12.08m0 12.07v12.07m0 12.08v12.07m0 12.08v12.08m0 12.07v12.08m0 12.08v12.08m0 12.08v12.08m0 12.08v12.07m0 12.07v12.08m0 12.07v12.08m0 12.08v12.07m0 12.08v12.08m0 12.08v12.08m0 12.08v12.08m0 12.07v12.07m0 12.08v12.07m0 12.08v12.08m0 12.07v12.08m0 12.08v12.08m0 12.08V714l-.82 3.03-2.15 2.15-3.03.82h-5.97m-11.94 0h-11.95m-11.94 0h-11.94m-11.94 0h-11.94m-11.94 0H410.5m-11.94 0h-11.94m-11.94 0h-11.94m-11.95 0h-11.95m-11.94 0h-11.93m-11.94 0H291.1m-11.95 0H267.2m-11.94 0h-11.94m-11.94 0h-11.94m-11.94 0h-11.94m-11.94 0h-11.94m-11.94 0H147.8m-11.95 0H123.9m-11.93 0H106l-3.03-.82-2.15-2.15L100 714v-6.04m0-12.08V683.8m0-12.07v-12.08m0-12.07V635.5m0-12.08v-12.07m0-12.08V587.2m0-12.08v-12.08m0-12.08v-12.08m0-12.07v-12.07m0-12.08v-12.07m0-12.08v-12.08m0-12.07v-12.08m0-12.08V418.1m0-12.08v-12.08m0-12.08V369.8m0-12.07v-12.08m0-12.07V321.5m0-12.08v-12.07m0-12.08V273.2m0-12.08v-12.08m0-12.08v-12.08m0-12.07v-12.07m0-12.08v-12.07m0-12.08v-12.08m0-12.07v-12.08m0-12.08V104.1m0-12.08V86l.82-3.03 2.15-2.15L106 80h5.97" stroke="#5a6c86" stroke-width="3" fill="none"/><use xlink:href="#h" transform="matrix(1,0,0,1,100,100) translate(184.575 14.4)"/><defs><path fill="#333" d="M706-1102c241 0 344 136 343 381V0H868v-695c1-168-57-273-220-268-190 6-283 138-283 336V0H185c-3-360 6-732-6-1082h170c4 54 7 126 8 185h3c63-121 164-204 346-205" id="i"/><path fill="#333" d="M1048-32c-2 300-135 456-433 456-222-1-358-88-400-267l184-25c22 99 100 157 222 156 184-2 248-125 248-315 0-64 3-133-2-194C807-100 706-13 524-12c-306 0-381-228-381-537 0-318 85-550 400-550 164 0 271 83 325 202h3c1-60 3-134 12-185h171c-13 339-4 702-6 1050zM585-145c210-8 284-178 284-406 0-192-52-331-177-392-33-16-69-22-104-22-223 2-259 184-259 414 0 229 31 415 256 406" id="j"/><path fill="#333" d="M745-142h380V0H143v-142h422v-798H246v-142h499v940zM545-1292v-192h200v192H545" id="k"/><path fill="#333" d="M932 0L611-444 288 0H94l415-556-397-526h199l300 421 298-421h201L713-558 1133 0H932" id="l"/><path fill="#333" d="M334-464v-160h560v160H334" id="m"/><path fill="#333" d="M873-819c-18-114-119-146-250-146-163 0-245 50-245 151 0 151 170 148 294 185 182 54 388 94 388 320 0 240-189 325-439 329-245 4-410-69-454-268l159-31c24 133 136 168 295 165 144-2 270-31 270-171 0-164-195-160-331-202-167-52-350-87-350-299 0-218 173-315 413-313 220 2 373 77 412 260" id="n"/><path fill="#333" d="M715 0H502L69-1082h202c94 253 197 500 285 758 19 57 36 126 52 183 96-335 234-626 350-941h201" id="o"/><path fill="#333" d="M631 20c-350 0-501-215-501-562 0-355 162-560 502-560 250 0 399 118 446 323l-192 14c-23-124-109-196-262-196-242 0-305 171-305 415 1 245 61 427 304 427 151 0 248-77 267-215l190 12C1039-107 883 20 631 20" id="p"/><g id="a"><use transform="matrix(0.010850694444444444,0,0,0.010850694444444444,0,0)" xlink:href="#i"/><use transform="matrix(0.010850694444444444,0,0,0.010850694444444444,13.335503472222221,0)" xlink:href="#j"/><use transform="matrix(0.010850694444444444,0,0,0.010850694444444444,26.671006944444443,0)" xlink:href="#k"/><use transform="matrix(0.010850694444444444,0,0,0.010850694444444444,40.006510416666664,0)" xlink:href="#i"/><use transform="matrix(0.010850694444444444,0,0,0.010850694444444444,53.342013888888886,0)" xlink:href="#l"/><use transform="matrix(0.010850694444444444,0,0,0.010850694444444444,66.67751736111111,0)" xlink:href="#m"/><use transform="matrix(0.010850694444444444,0,0,0.010850694444444444,80.01302083333334,0)" xlink:href="#n"/><use transform="matrix(0.010850694444444444,0,0,0.010850694444444444,93.34852430555557,0)" xlink:href="#o"/><use transform="matrix(0.010850694444444444,0,0,0.010850694444444444,106.6840277777778,0)" xlink:href="#p"/></g><path fill="#333" d="M202-1349h823v156H709v1037h316V0H202v-156h316v-1037H202v-156" id="q"/><path fill="#333" d="M839-1102c70 0 148 7 206 17v167c-112-18-268-36-363 15-129 69-208 203-208 395V0H294c-10-367 32-789-52-1082h171c21 75 41 161 48 250h5c67-152 152-270 373-270" id="r"/><path fill="#333" d="M617-1102c355 0 481 238 477 599H322c5 222 84 388 301 388 144 0 244-59 284-166l158 45C1002-72 854 20 623 20c-342 0-490-220-490-568 0-346 151-554 484-554zm291 461c-18-192-90-328-289-328-194 0-287 128-295 328h584" id="s"/><g id="b"><use transform="matrix(0.010850694444444444,0,0,0.010850694444444444,0,0)" xlink:href="#q"/><use transform="matrix(0.010850694444444444,0,0,0.010850694444444444,13.335503472222221,0)" xlink:href="#i"/><use transform="matrix(0.010850694444444444,0,0,0.010850694444444444,26.671006944444443,0)" xlink:href="#j"/><use transform="matrix(0.010850694444444444,0,0,0.010850694444444444,40.006510416666664,0)" xlink:href="#r"/><use transform="matrix(0.010850694444444444,0,0,0.010850694444444444,53.342013888888886,0)" xlink:href="#s"/><use transform="matrix(0.010850694444444444,0,0,0.010850694444444444,66.67751736111111,0)" xlink:href="#n"/><use transform="matrix(0.010850694444444444,0,0,0.010850694444444444,80.01302083333334,0)" xlink:href="#n"/></g><g id="c"><use transform="matrix(0.010850694444444444,0,0,0.010850694444444444,0,0)" xlink:href="#i"/><use transform="matrix(0.010850694444444444,0,0,0.010850694444444444,13.335503472222221,0)" xlink:href="#j"/><use transform="matrix(0.010850694444444444,0,0,0.010850694444444444,26.671006944444443,0)" xlink:href="#k"/><use transform="matrix(0.010850694444444444,0,0,0.010850694444444444,40.006510416666664,0)" xlink:href="#i"/><use transform="matrix(0.010850694444444444,0,0,0.010850694444444444,53.342013888888886,0)" xlink:href="#l"/><use transform="matrix(0.010850694444444444,0,0,0.010850694444444444,66.67751736111111,0)" xlink:href="#m"/><use transform="matrix(0.010850694444444444,0,0,0.010850694444444444,80.01302083333334,0)" xlink:href="#j"/><use transform="matrix(0.010850694444444444,0,0,0.010850694444444444,93.34852430555557,0)" xlink:href="#r"/><use transform="matrix(0.010850694444444444,0,0,0.010850694444444444,106.6840277777778,0)" xlink:href="#s"/><use transform="matrix(0.010850694444444444,0,0,0.010850694444444444,120.01953125000003,0)" xlink:href="#s"/><use transform="matrix(0.010850694444444444,0,0,0.010850694444444444,133.35503472222226,0)" xlink:href="#i"/><use transform="matrix(0.010850694444444444,0,0,0.010850694444444444,146.69053819444449,0)" xlink:href="#m"/><use transform="matrix(0.010850694444444444,0,0,0.010850694444444444,160.0260416666667,0)" xlink:href="#n"/><use transform="matrix(0.010850694444444444,0,0,0.010850694444444444,173.36154513888894,0)" xlink:href="#o"/><use transform="matrix(0.010850694444444444,0,0,0.010850694444444444,186.69704861111117,0)" xlink:href="#p"/></g><path fill="#333" d="M365-904c58-129 161-200 334-200 130 0 228 46 293 138s98 233 98 420c0 189-34 331-102 425S824 20 698 20c-170 0-275-64-336-184 0 55-3 116-9 164H179c5-68 6-147 6-223v-1261h180c-2 193 4 394-4 580h4zm283 791c221 0 256-197 256-427 0-229-34-425-254-425-236 0-285 195-285 441 0 237 53 411 283 411" id="t"/><path fill="#333" d="M736-142h380V0H134v-142h422v-1200H267v-142h469v1342" id="u"/><path fill="#333" d="M528 20c-247 0-343-132-343-381v-721h180v686c-4 177 45 284 224 277 194-8 279-136 279-336v-627h181c3 360-6 732 6 1082H885c-4-54-7-126-8-185h-3C809-64 714 20 528 20" id="v"/><g id="d"><use transform="matrix(0.010850694444444444,0,0,0.010850694444444444,0,0)" xlink:href="#i"/><use transform="matrix(0.010850694444444444,0,0,0.010850694444444444,13.335503472222221,0)" xlink:href="#j"/><use transform="matrix(0.010850694444444444,0,0,0.010850694444444444,26.671006944444443,0)" xlink:href="#k"/><use transform="matrix(0.010850694444444444,0,0,0.010850694444444444,40.006510416666664,0)" xlink:href="#i"/><use transform="matrix(0.010850694444444444,0,0,0.010850694444444444,53.342013888888886,0)" xlink:href="#l"/><use transform="matrix(0.010850694444444444,0,0,0.010850694444444444,66.67751736111111,0)" xlink:href="#m"/><use transform="matrix(0.010850694444444444,0,0,0.010850694444444444,80.01302083333334,0)" xlink:href="#t"/><use transform="matrix(0.010850694444444444,0,0,0.010850694444444444,93.34852430555557,0)" xlink:href="#u"/><use transform="matrix(0.010850694444444444,0,0,0.010850694444444444,106.6840277777778,0)" xlink:href="#v"/><use transform="matrix(0.010850694444444444,0,0,0.010850694444444444,120.01953125000003,0)" xlink:href="#s"/><use transform="matrix(0.010850694444444444,0,0,0.010850694444444444,133.35503472222226,0)" xlink:href="#m"/><use transform="matrix(0.010850694444444444,0,0,0.010850694444444444,146.69053819444449,0)" xlink:href="#n"/><use transform="matrix(0.010850694444444444,0,0,0.010850694444444444,160.0260416666667,0)" xlink:href="#o"/><use transform="matrix(0.010850694444444444,0,0,0.010850694444444444,173.36154513888894,0)" xlink:href="#p"/></g><path fill="#333" d="M114 20l821-1504h178L296 20H114" id="w"/><path fill="#333" d="M1000-272c3 95 12 159 101 161 21 0 41-3 59-7V-6c-44 10-86 16-139 16-141 2-191-84-197-217h-6C748-76 648 20 446 20c-207 0-318-120-318-322 0-266 194-348 454-354l236-4c12-191-40-305-222-305-140 0-220 47-232 172l-188-17c33-204 181-292 423-292 255 0 401 118 401 364v466zm-683-27c0 109 63 184 175 182 166-3 259-96 306-217 24-65 20-120 20-200-232 7-501-28-501 235" id="x"/><g id="e"><use transform="matrix(0.010850694444444444,0,0,0.010850694444444444,0,0)" xlink:href="#w"/><use transform="matrix(0.010850694444444444,0,0,0.010850694444444444,13.335503472222221,0)" xlink:href="#x"/><use transform="matrix(0.010850694444444444,0,0,0.010850694444444444,26.671006944444443,0)" xlink:href="#u"/><use transform="matrix(0.010850694444444444,0,0,0.010850694444444444,40.006510416666664,0)" xlink:href="#u"/></g><g id="f"><use transform="matrix(0.010850694444444444,0,0,0.010850694444444444,0,0)" xlink:href="#w"/><use transform="matrix(0.010850694444444444,0,0,0.010850694444444444,13.335503472222221,0)" xlink:href="#t"/><use transform="matrix(0.010850694444444444,0,0,0.010850694444444444,26.671006944444443,0)" xlink:href="#u"/><use transform="matrix(0.010850694444444444,0,0,0.010850694444444444,40.006510416666664,0)" xlink:href="#v"/><use transform="matrix(0.010850694444444444,0,0,0.010850694444444444,53.342013888888886,0)" xlink:href="#s"/></g><g id="g"><use transform="matrix(0.010850694444444444,0,0,0.010850694444444444,0,0)" xlink:href="#w"/><use transform="matrix(0.010850694444444444,0,0,0.010850694444444444,13.335503472222221,0)" xlink:href="#j"/><use transform="matrix(0.010850694444444444,0,0,0.010850694444444444,26.671006944444443,0)" xlink:href="#r"/><use transform="matrix(0.010850694444444444,0,0,0.010850694444444444,40.006510416666664,0)" xlink:href="#s"/><use transform="matrix(0.010850694444444444,0,0,0.010850694444444444,53.342013888888886,0)" xlink:href="#s"/><use transform="matrix(0.010850694444444444,0,0,0.010850694444444444,66.67751736111111,0)" xlink:href="#i"/></g><path fill="#5a6c86" d="M127-220V0H93v-220H8v-28h204v28h-85" id="y"/><path fill="#5a6c86" d="M114-163C36-179 61-72 57 0H25l-1-190h30c1 12-1 29 2 39 6-27 23-49 58-41v29" id="z"/><path fill="#5a6c86" d="M141-36C126-15 110 5 73 4 37 3 15-17 15-53c-1-64 63-63 125-63 3-35-9-54-41-54-24 1-41 7-42 31l-33-3c5-37 33-52 76-52 45 0 72 20 72 64v82c-1 20 7 32 28 27v20c-31 9-61-2-59-35zM48-53c0 20 12 33 32 33 41-3 63-29 60-74-43 2-92-5-92 41" id="A"/><path fill="#5a6c86" d="M101-234c-31-9-42 10-38 44h38v23H63V0H32v-167H5v-23h27c-7-52 17-82 69-68v24" id="B"/><path fill="#5a6c86" d="M24-231v-30h32v30H24zM24 0v-190h32V0H24" id="C"/><path fill="#5a6c86" d="M96-169c-40 0-48 33-48 73s9 75 48 75c24 0 41-14 43-38l32 2c-6 37-31 61-74 61-59 0-76-41-82-99-10-93 101-131 147-64 4 7 5 14 7 22l-32 3c-4-21-16-35-41-35" id="D"/><g id="h"><use transform="matrix(0.05,0,0,0.05,0,0)" xlink:href="#y"/><use transform="matrix(0.05,0,0,0.05,10.3,0)" xlink:href="#z"/><use transform="matrix(0.05,0,0,0.05,16.25,0)" xlink:href="#A"/><use transform="matrix(0.05,0,0,0.05,26.25,0)" xlink:href="#B"/><use transform="matrix(0.05,0,0,0.05,30.899999999999995,0)" xlink:href="#B"/><use transform="matrix(0.05,0,0,0.05,35.9,0)" xlink:href="#C"/><use transform="matrix(0.05,0,0,0.05,39.85,0)" xlink:href="#D"/></g></defs></g></svg>